<svg width="298" height="128" viewBox="0 0 298 128" fill="none" xmlns="http://www.w3.org/2000/svg">
<rect width="298" height="128" rx="20" fill="#CCD6A6"/>
<path d="M64.0909 87.0208C69.2046 87.0208 73.5518 85.0696 77.1327 81.167C80.7136 77.2645 82.5027 72.5283 82.5 66.9583C82.5 61.3854 80.7096 56.6477 77.1287 52.7452C73.5477 48.8426 69.2018 46.8929 64.0909 46.8958C58.9773 46.8958 54.63 48.8471 51.0491 52.7496C47.4682 56.6522 45.6791 61.3884 45.6818 66.9583C45.6818 72.5312 47.4723 77.269 51.0532 81.1715C54.6341 85.074 58.98 87.0238 64.0909 87.0208ZM64.0909 78.1042C61.2273 78.1042 58.8068 77.0267 56.8296 74.8719C54.8523 72.717 53.8636 70.0792 53.8636 66.9583C53.8636 63.8375 54.8523 61.1997 56.8296 59.0448C58.8068 56.8899 61.2273 55.8125 64.0909 55.8125C66.9546 55.8125 69.375 56.8899 71.3523 59.0448C73.3296 61.1997 74.3182 63.8375 74.3182 66.9583C74.3182 70.0792 73.3296 72.717 71.3523 74.8719C69.375 77.0267 66.9546 78.1042 64.0909 78.1042ZM31.3636 102.625C29.1136 102.625 27.1868 101.751 25.5832 100.004C23.9796 98.2558 23.1791 96.1574 23.1818 93.7083V40.2083C23.1818 37.7563 23.9836 35.6564 25.5873 33.9087C27.1909 32.161 29.1164 31.2887 31.3636 31.2917H44.25L51.8182 22.375H76.3636L83.9318 31.2917H96.8182C99.0682 31.2917 100.995 32.1655 102.599 33.9132C104.202 35.6608 105.003 37.7592 105 40.2083V93.7083C105 96.1604 104.198 98.2603 102.595 100.008C100.991 101.756 99.0655 102.628 96.8182 102.625H31.3636ZM96.8182 93.7083V40.2083H80.25L72.7841 31.2917H55.3977L47.9318 40.2083H31.3636V93.7083H96.8182Z" fill="#3E721D"/>
<path d="M133.114 65V47.5455H135.227V63.125H143.341V65H133.114ZM151.83 65.2727C150.568 65.2727 149.48 64.9943 148.565 64.4375C147.656 63.875 146.955 63.0909 146.46 62.0852C145.972 61.0739 145.727 59.8977 145.727 58.5568C145.727 57.2159 145.972 56.0341 146.46 55.0114C146.955 53.983 147.642 53.1818 148.523 52.608C149.409 52.0284 150.443 51.7386 151.625 51.7386C152.307 51.7386 152.98 51.8523 153.645 52.0795C154.31 52.3068 154.915 52.6761 155.46 53.1875C156.006 53.6932 156.44 54.3636 156.764 55.1989C157.088 56.0341 157.25 57.0625 157.25 58.2841V59.1364H147.159V57.3977H155.205C155.205 56.6591 155.057 56 154.761 55.4205C154.472 54.8409 154.057 54.3835 153.517 54.0483C152.983 53.7131 152.352 53.5455 151.625 53.5455C150.824 53.5455 150.131 53.7443 149.545 54.142C148.966 54.5341 148.52 55.0455 148.207 55.6761C147.895 56.3068 147.739 56.983 147.739 57.7045V58.8636C147.739 59.8523 147.909 60.6903 148.25 61.3778C148.597 62.0597 149.077 62.5795 149.69 62.9375C150.304 63.2898 151.017 63.4659 151.83 63.4659C152.358 63.4659 152.835 63.392 153.261 63.2443C153.693 63.0909 154.065 62.8636 154.378 62.5625C154.69 62.2557 154.932 61.875 155.102 61.4205L157.045 61.9659C156.841 62.625 156.497 63.2045 156.014 63.7045C155.531 64.1989 154.935 64.5852 154.224 64.8636C153.514 65.1364 152.716 65.2727 151.83 65.2727ZM166.003 51.9091V53.6136H159.219V51.9091H166.003ZM161.196 48.7727H163.207V61.25C163.207 61.8182 163.29 62.2443 163.455 62.5284C163.625 62.8068 163.841 62.9943 164.102 63.0909C164.369 63.1818 164.651 63.2273 164.946 63.2273C165.168 63.2273 165.349 63.2159 165.491 63.1932C165.634 63.1648 165.747 63.142 165.832 63.125L166.241 64.9318C166.105 64.983 165.915 65.0341 165.67 65.0852C165.426 65.142 165.116 65.1705 164.741 65.1705C164.173 65.1705 163.616 65.0483 163.071 64.804C162.531 64.5597 162.082 64.1875 161.724 63.6875C161.372 63.1875 161.196 62.5568 161.196 61.7955V48.7727ZM178.067 54.8409L176.26 55.3523C176.146 55.0511 175.979 54.7585 175.757 54.4744C175.541 54.1847 175.246 53.946 174.871 53.7585C174.496 53.571 174.016 53.4773 173.43 53.4773C172.629 53.4773 171.962 53.6619 171.428 54.0312C170.899 54.3949 170.635 54.858 170.635 55.4205C170.635 55.9205 170.817 56.3153 171.18 56.6051C171.544 56.8949 172.112 57.1364 172.885 57.3295L174.828 57.8068C175.999 58.0909 176.871 58.5256 177.445 59.1108C178.018 59.6903 178.305 60.4375 178.305 61.3523C178.305 62.1023 178.089 62.7727 177.658 63.3636C177.232 63.9545 176.635 64.4205 175.868 64.7614C175.101 65.1023 174.209 65.2727 173.192 65.2727C171.857 65.2727 170.751 64.983 169.876 64.4034C169.001 63.8239 168.447 62.9773 168.214 61.8636L170.124 61.3864C170.305 62.0909 170.649 62.6193 171.155 62.9716C171.666 63.3239 172.334 63.5 173.158 63.5C174.095 63.5 174.839 63.3011 175.391 62.9034C175.947 62.5 176.226 62.017 176.226 61.4545C176.226 61 176.067 60.6193 175.749 60.3125C175.43 60 174.942 59.767 174.283 59.6136L172.101 59.1023C170.902 58.8182 170.021 58.3778 169.459 57.7812C168.902 57.179 168.624 56.4261 168.624 55.5227C168.624 54.7841 168.831 54.1307 169.246 53.5625C169.666 52.9943 170.237 52.5483 170.959 52.2244C171.686 51.9006 172.51 51.7386 173.43 51.7386C174.726 51.7386 175.743 52.0227 176.482 52.5909C177.226 53.1591 177.754 53.9091 178.067 54.8409ZM193.742 65H188.356V47.5455H193.981C195.674 47.5455 197.123 47.8949 198.327 48.5938C199.532 49.2869 200.455 50.2841 201.097 51.5852C201.739 52.8807 202.06 54.4318 202.06 56.2386C202.06 58.0568 201.737 59.6222 201.089 60.9347C200.441 62.2415 199.498 63.2472 198.259 63.9517C197.021 64.6506 195.515 65 193.742 65ZM190.469 63.125H193.606C195.049 63.125 196.245 62.8466 197.194 62.2898C198.143 61.733 198.85 60.9403 199.316 59.9119C199.782 58.8835 200.015 57.6591 200.015 56.2386C200.015 54.8295 199.785 53.6165 199.325 52.5994C198.864 51.5767 198.177 50.7926 197.262 50.2472C196.347 49.696 195.208 49.4205 193.844 49.4205H190.469V63.125ZM210.822 65.2727C209.56 65.2727 208.472 64.9943 207.558 64.4375C206.648 63.875 205.947 63.0909 205.452 62.0852C204.964 61.0739 204.719 59.8977 204.719 58.5568C204.719 57.2159 204.964 56.0341 205.452 55.0114C205.947 53.983 206.634 53.1818 207.515 52.608C208.401 52.0284 209.435 51.7386 210.617 51.7386C211.299 51.7386 211.972 51.8523 212.637 52.0795C213.302 52.3068 213.907 52.6761 214.452 53.1875C214.998 53.6932 215.433 54.3636 215.756 55.1989C216.08 56.0341 216.242 57.0625 216.242 58.2841V59.1364H206.151V57.3977H214.197C214.197 56.6591 214.049 56 213.754 55.4205C213.464 54.8409 213.049 54.3835 212.509 54.0483C211.975 53.7131 211.344 53.5455 210.617 53.5455C209.816 53.5455 209.123 53.7443 208.538 54.142C207.958 54.5341 207.512 55.0455 207.2 55.6761C206.887 56.3068 206.731 56.983 206.731 57.7045V58.8636C206.731 59.8523 206.901 60.6903 207.242 61.3778C207.589 62.0597 208.069 62.5795 208.683 62.9375C209.296 63.2898 210.009 63.4659 210.822 63.4659C211.35 63.4659 211.827 63.392 212.254 63.2443C212.685 63.0909 213.058 62.8636 213.37 62.5625C213.683 62.2557 213.924 61.875 214.094 61.4205L216.038 61.9659C215.833 62.625 215.489 63.2045 215.006 63.7045C214.523 64.1989 213.927 64.5852 213.217 64.8636C212.506 65.1364 211.708 65.2727 210.822 65.2727ZM224.995 51.9091V53.6136H218.211V51.9091H224.995ZM220.188 48.7727H222.2V61.25C222.2 61.8182 222.282 62.2443 222.447 62.5284C222.617 62.8068 222.833 62.9943 223.094 63.0909C223.362 63.1818 223.643 63.2273 223.938 63.2273C224.16 63.2273 224.342 63.2159 224.484 63.1932C224.626 63.1648 224.739 63.142 224.825 63.125L225.234 64.9318C225.097 64.983 224.907 65.0341 224.663 65.0852C224.418 65.142 224.109 65.1705 223.734 65.1705C223.165 65.1705 222.609 65.0483 222.063 64.804C221.523 64.5597 221.075 64.1875 220.717 63.6875C220.364 63.1875 220.188 62.5568 220.188 61.7955V48.7727ZM233.369 65.2727C232.107 65.2727 231.019 64.9943 230.104 64.4375C229.195 63.875 228.494 63.0909 227.999 62.0852C227.511 61.0739 227.266 59.8977 227.266 58.5568C227.266 57.2159 227.511 56.0341 227.999 55.0114C228.494 53.983 229.181 53.1818 230.062 52.608C230.948 52.0284 231.982 51.7386 233.164 51.7386C233.846 51.7386 234.519 51.8523 235.184 52.0795C235.849 52.3068 236.454 52.6761 236.999 53.1875C237.545 53.6932 237.979 54.3636 238.303 55.1989C238.627 56.0341 238.789 57.0625 238.789 58.2841V59.1364H228.698V57.3977H236.744C236.744 56.6591 236.596 56 236.3 55.4205C236.011 54.8409 235.596 54.3835 235.056 54.0483C234.522 53.7131 233.891 53.5455 233.164 53.5455C232.363 53.5455 231.67 53.7443 231.085 54.142C230.505 54.5341 230.059 55.0455 229.746 55.6761C229.434 56.3068 229.278 56.983 229.278 57.7045V58.8636C229.278 59.8523 229.448 60.6903 229.789 61.3778C230.136 62.0597 230.616 62.5795 231.229 62.9375C231.843 63.2898 232.556 63.4659 233.369 63.4659C233.897 63.4659 234.374 63.392 234.8 63.2443C235.232 63.0909 235.604 62.8636 235.917 62.5625C236.229 62.2557 236.471 61.875 236.641 61.4205L238.585 61.9659C238.38 62.625 238.036 63.2045 237.553 63.7045C237.07 64.1989 236.474 64.5852 235.763 64.8636C235.053 65.1364 234.255 65.2727 233.369 65.2727ZM247.167 65.2727C245.94 65.2727 244.883 64.983 243.996 64.4034C243.11 63.8239 242.428 63.0256 241.951 62.0085C241.474 60.9915 241.235 59.8295 241.235 58.5227C241.235 57.1932 241.479 56.0199 241.968 55.0028C242.462 53.9801 243.15 53.1818 244.031 52.608C244.917 52.0284 245.951 51.7386 247.133 51.7386C248.053 51.7386 248.883 51.9091 249.621 52.25C250.36 52.5909 250.965 53.0682 251.437 53.6818C251.908 54.2955 252.201 55.0114 252.315 55.8295H250.303C250.15 55.233 249.809 54.7045 249.281 54.2443C248.758 53.7784 248.053 53.5455 247.167 53.5455C246.383 53.5455 245.695 53.75 245.104 54.1591C244.519 54.5625 244.062 55.1335 243.732 55.8722C243.408 56.6051 243.246 57.4659 243.246 58.4545C243.246 59.4659 243.406 60.3466 243.724 61.0966C244.048 61.8466 244.502 62.429 245.087 62.8438C245.678 63.2585 246.371 63.4659 247.167 63.4659C247.69 63.4659 248.164 63.375 248.59 63.1932C249.016 63.0114 249.377 62.75 249.673 62.4091C249.968 62.0682 250.178 61.6591 250.303 61.1818H252.315C252.201 61.9545 251.92 62.6506 251.471 63.2699C251.028 63.8835 250.44 64.3722 249.707 64.7358C248.979 65.0938 248.133 65.2727 247.167 65.2727ZM260.948 51.9091V53.6136H254.164V51.9091H260.948ZM256.141 48.7727H258.153V61.25C258.153 61.8182 258.235 62.2443 258.4 62.5284C258.57 62.8068 258.786 62.9943 259.048 63.0909C259.315 63.1818 259.596 63.2273 259.891 63.2273C260.113 63.2273 260.295 63.2159 260.437 63.1932C260.579 63.1648 260.692 63.142 260.778 63.125L261.187 64.9318C261.05 64.983 260.86 65.0341 260.616 65.0852C260.371 65.142 260.062 65.1705 259.687 65.1705C259.119 65.1705 258.562 65.0483 258.016 64.804C257.477 64.5597 257.028 64.1875 256.67 63.6875C256.317 63.1875 256.141 62.5568 256.141 61.7955V48.7727ZM266.633 47.5455L266.462 60.0909H264.485L264.315 47.5455H266.633ZM265.474 65.1364C265.053 65.1364 264.692 64.9858 264.391 64.6847C264.09 64.3835 263.94 64.0227 263.94 63.6023C263.94 63.1818 264.09 62.821 264.391 62.5199C264.692 62.2187 265.053 62.0682 265.474 62.0682C265.894 62.0682 266.255 62.2187 266.556 62.5199C266.857 62.821 267.008 63.1818 267.008 63.6023C267.008 63.8807 266.937 64.1364 266.795 64.3693C266.658 64.6023 266.474 64.7898 266.241 64.9318C266.013 65.0682 265.758 65.1364 265.474 65.1364Z" fill="black"/>
<path d="M140.08 80H139.023C138.96 79.696 138.851 79.429 138.695 79.1989C138.541 78.9688 138.354 78.7756 138.132 78.6193C137.913 78.4602 137.67 78.3409 137.403 78.2614C137.136 78.1818 136.858 78.142 136.568 78.142C136.04 78.142 135.561 78.2756 135.132 78.5426C134.706 78.8097 134.366 79.2031 134.114 79.723C133.864 80.2429 133.739 80.8807 133.739 81.6364C133.739 82.392 133.864 83.0298 134.114 83.5497C134.366 84.0696 134.706 84.4631 135.132 84.7301C135.561 84.9972 136.04 85.1307 136.568 85.1307C136.858 85.1307 137.136 85.0909 137.403 85.0114C137.67 84.9318 137.913 84.8139 138.132 84.6577C138.354 84.4986 138.541 84.304 138.695 84.0739C138.851 83.8409 138.96 83.5739 139.023 83.2727H140.08C140 83.7187 139.855 84.1179 139.645 84.4702C139.435 84.8224 139.173 85.1222 138.861 85.3693C138.548 85.6136 138.197 85.7997 137.808 85.9276C137.422 86.0554 137.009 86.1193 136.568 86.1193C135.824 86.1193 135.162 85.9375 134.582 85.5739C134.003 85.2102 133.547 84.6932 133.214 84.0227C132.882 83.3523 132.716 82.5568 132.716 81.6364C132.716 80.7159 132.882 79.9205 133.214 79.25C133.547 78.5795 134.003 78.0625 134.582 77.6989C135.162 77.3352 135.824 77.1534 136.568 77.1534C137.009 77.1534 137.422 77.2173 137.808 77.3452C138.197 77.473 138.548 77.6605 138.861 77.9077C139.173 78.152 139.435 78.4503 139.645 78.8026C139.855 79.152 140 79.5511 140.08 80ZM143.577 86.1534C143.162 86.1534 142.786 86.0753 142.448 85.919C142.11 85.7599 141.841 85.5312 141.642 85.233C141.444 84.9318 141.344 84.5682 141.344 84.142C141.344 83.767 141.418 83.4631 141.566 83.2301C141.713 82.9943 141.911 82.8097 142.158 82.6761C142.405 82.5426 142.678 82.4432 142.976 82.3778C143.277 82.3097 143.58 82.2557 143.884 82.2159C144.282 82.1648 144.604 82.1264 144.851 82.1009C145.101 82.0724 145.283 82.0256 145.397 81.9602C145.513 81.8949 145.571 81.7812 145.571 81.6193V81.5852C145.571 81.1648 145.456 80.8381 145.226 80.6051C144.999 80.3722 144.654 80.2557 144.191 80.2557C143.711 80.2557 143.334 80.3608 143.061 80.571C142.789 80.7812 142.597 81.0057 142.486 81.2443L141.532 80.9034C141.702 80.5057 141.929 80.196 142.213 79.9744C142.5 79.75 142.813 79.5937 143.151 79.5057C143.492 79.4148 143.827 79.3693 144.157 79.3693C144.367 79.3693 144.608 79.3949 144.881 79.446C145.157 79.4943 145.422 79.5952 145.678 79.7486C145.936 79.902 146.151 80.1335 146.321 80.4432C146.492 80.7528 146.577 81.1676 146.577 81.6875V86H145.571V85.1136H145.52C145.452 85.2557 145.338 85.4077 145.179 85.5696C145.02 85.7315 144.809 85.8693 144.544 85.983C144.28 86.0966 143.958 86.1534 143.577 86.1534ZM143.73 85.25C144.128 85.25 144.463 85.1719 144.736 85.0156C145.012 84.8594 145.219 84.6577 145.358 84.4105C145.5 84.1634 145.571 83.9034 145.571 83.6307V82.7102C145.529 82.7614 145.435 82.8082 145.29 82.8509C145.148 82.8906 144.983 82.9261 144.796 82.9574C144.611 82.9858 144.431 83.0114 144.255 83.0341C144.081 83.054 143.941 83.071 143.833 83.0852C143.571 83.1193 143.327 83.1747 143.1 83.2514C142.875 83.3253 142.694 83.4375 142.554 83.5881C142.418 83.7358 142.35 83.9375 142.35 84.1932C142.35 84.5426 142.479 84.8068 142.738 84.9858C142.999 85.1619 143.33 85.25 143.73 85.25ZM151.259 79.4545V80.3068H147.867V79.4545H151.259ZM148.856 77.8864H149.862V84.125C149.862 84.4091 149.903 84.6222 149.985 84.7642C150.07 84.9034 150.178 84.9972 150.309 85.0455C150.442 85.0909 150.583 85.1136 150.731 85.1136C150.842 85.1136 150.933 85.108 151.004 85.0966C151.075 85.0824 151.131 85.071 151.174 85.0625L151.379 85.9659C151.31 85.9915 151.215 86.017 151.093 86.0426C150.971 86.071 150.816 86.0852 150.629 86.0852C150.344 86.0852 150.066 86.0241 149.793 85.902C149.523 85.7798 149.299 85.5938 149.12 85.3438C148.944 85.0938 148.856 84.7784 148.856 84.3977V77.8864ZM155.446 86.1364C154.815 86.1364 154.271 85.9972 153.814 85.7188C153.359 85.4375 153.009 85.0455 152.761 84.5426C152.517 84.0369 152.395 83.4489 152.395 82.7784C152.395 82.108 152.517 81.517 152.761 81.0057C153.009 80.4915 153.352 80.0909 153.793 79.804C154.236 79.5142 154.753 79.3693 155.344 79.3693C155.685 79.3693 156.021 79.4261 156.354 79.5398C156.686 79.6534 156.989 79.8381 157.261 80.0938C157.534 80.3466 157.751 80.6818 157.913 81.0994C158.075 81.517 158.156 82.0312 158.156 82.642V83.0682H153.111V82.1989H157.134C157.134 81.8295 157.06 81.5 156.912 81.2102C156.767 80.9205 156.56 80.6918 156.29 80.5241C156.023 80.3565 155.707 80.2727 155.344 80.2727C154.943 80.2727 154.597 80.3722 154.304 80.571C154.014 80.767 153.791 81.0227 153.635 81.3381C153.479 81.6534 153.401 81.9915 153.401 82.3523V82.9318C153.401 83.4261 153.486 83.8452 153.656 84.1889C153.83 84.5298 154.07 84.7898 154.376 84.9688C154.683 85.1449 155.04 85.233 155.446 85.233C155.71 85.233 155.949 85.196 156.162 85.1222C156.378 85.0455 156.564 84.9318 156.72 84.7812C156.876 84.6278 156.997 84.4375 157.082 84.2102L158.054 84.483C157.952 84.8125 157.78 85.1023 157.538 85.3523C157.297 85.5994 156.999 85.7926 156.643 85.9318C156.288 86.0682 155.889 86.1364 155.446 86.1364ZM162.328 88.5909C161.842 88.5909 161.425 88.5284 161.075 88.4034C160.726 88.2812 160.435 88.1193 160.202 87.9176C159.972 87.7188 159.788 87.5057 159.652 87.2784L160.453 86.7159C160.544 86.8352 160.659 86.9716 160.798 87.125C160.938 87.2812 161.128 87.4162 161.369 87.5298C161.614 87.6463 161.933 87.7045 162.328 87.7045C162.857 87.7045 163.293 87.5767 163.636 87.321C163.98 87.0653 164.152 86.6648 164.152 86.1193V84.7898H164.067C163.993 84.9091 163.888 85.0568 163.751 85.233C163.618 85.4062 163.425 85.5611 163.172 85.6974C162.922 85.831 162.584 85.8977 162.158 85.8977C161.629 85.8977 161.155 85.7727 160.734 85.5227C160.317 85.2727 159.986 84.9091 159.741 84.4318C159.5 83.9545 159.379 83.375 159.379 82.6932C159.379 82.0227 159.497 81.4389 159.733 80.9418C159.969 80.4418 160.297 80.0554 160.717 79.7827C161.138 79.5071 161.624 79.3693 162.175 79.3693C162.601 79.3693 162.939 79.4403 163.189 79.5824C163.442 79.7216 163.635 79.8807 163.768 80.0597C163.905 80.2358 164.01 80.3807 164.084 80.4943H164.186V79.4545H165.158V86.1875C165.158 86.75 165.03 87.2074 164.774 87.5597C164.521 87.9148 164.18 88.1747 163.751 88.3395C163.325 88.5071 162.851 88.5909 162.328 88.5909ZM162.294 84.9943C162.697 84.9943 163.038 84.902 163.317 84.7173C163.595 84.5327 163.807 84.267 163.952 83.9205C164.097 83.5739 164.169 83.1591 164.169 82.6761C164.169 82.2045 164.098 81.7884 163.956 81.4276C163.814 81.0668 163.604 80.7841 163.325 80.5795C163.047 80.375 162.703 80.2727 162.294 80.2727C161.868 80.2727 161.513 80.3807 161.229 80.5966C160.947 80.8125 160.736 81.1023 160.594 81.4659C160.455 81.8295 160.385 82.233 160.385 82.6761C160.385 83.1307 160.456 83.5327 160.598 83.8821C160.743 84.2287 160.956 84.5014 161.237 84.7003C161.521 84.8963 161.874 84.9943 162.294 84.9943ZM169.658 86.1364C169.067 86.1364 168.548 85.9957 168.102 85.7145C167.659 85.4332 167.312 85.0398 167.062 84.5341C166.815 84.0284 166.692 83.4375 166.692 82.7614C166.692 82.0795 166.815 81.4844 167.062 80.9759C167.312 80.4673 167.659 80.0724 168.102 79.7912C168.548 79.5099 169.067 79.3693 169.658 79.3693C170.249 79.3693 170.766 79.5099 171.209 79.7912C171.655 80.0724 172.001 80.4673 172.249 80.9759C172.499 81.4844 172.624 82.0795 172.624 82.7614C172.624 83.4375 172.499 84.0284 172.249 84.5341C172.001 85.0398 171.655 85.4332 171.209 85.7145C170.766 85.9957 170.249 86.1364 169.658 86.1364ZM169.658 85.233C170.107 85.233 170.476 85.1179 170.766 84.8878C171.055 84.6577 171.27 84.3551 171.409 83.9801C171.548 83.6051 171.618 83.1989 171.618 82.7614C171.618 82.3239 171.548 81.9162 171.409 81.5384C171.27 81.1605 171.055 80.8551 170.766 80.6222C170.476 80.3892 170.107 80.2727 169.658 80.2727C169.209 80.2727 168.839 80.3892 168.55 80.6222C168.26 80.8551 168.045 81.1605 167.906 81.5384C167.767 81.9162 167.697 82.3239 167.697 82.7614C167.697 83.1989 167.767 83.6051 167.906 83.9801C168.045 84.3551 168.26 84.6577 168.55 84.8878C168.839 85.1179 169.209 85.233 169.658 85.233ZM174.159 86V79.4545H175.13V80.4432H175.199C175.318 80.1193 175.534 79.8565 175.846 79.6548C176.159 79.4531 176.511 79.3523 176.903 79.3523C176.977 79.3523 177.069 79.3537 177.18 79.3565C177.291 79.3594 177.375 79.3636 177.431 79.3693V80.392C177.397 80.3835 177.319 80.3707 177.197 80.3537C177.078 80.3338 176.951 80.3239 176.818 80.3239C176.5 80.3239 176.216 80.3906 175.966 80.5241C175.718 80.6548 175.522 80.8366 175.377 81.0696C175.235 81.2997 175.164 81.5625 175.164 81.858V86H174.159ZM178.624 86V79.4545H179.629V86H178.624ZM179.135 78.3636C178.939 78.3636 178.77 78.2969 178.628 78.1634C178.489 78.0298 178.419 77.8693 178.419 77.6818C178.419 77.4943 178.489 77.3338 178.628 77.2003C178.77 77.0668 178.939 77 179.135 77C179.331 77 179.499 77.0668 179.638 77.2003C179.78 77.3338 179.851 77.4943 179.851 77.6818C179.851 77.8693 179.78 78.0298 179.638 78.1634C179.499 78.2969 179.331 78.3636 179.135 78.3636ZM181.284 86V85.233L185 80.4602V80.392H181.403V79.4545H186.295V80.2557L182.681 84.9943V85.0625H186.414V86H181.284ZM187.963 86V79.4545H188.969V86H187.963ZM188.475 78.3636C188.279 78.3636 188.11 78.2969 187.968 78.1634C187.828 78.0298 187.759 77.8693 187.759 77.6818C187.759 77.4943 187.828 77.3338 187.968 77.2003C188.11 77.0668 188.279 77 188.475 77C188.671 77 188.838 77.0668 188.978 77.2003C189.12 77.3338 189.191 77.4943 189.191 77.6818C189.191 77.8693 189.12 78.0298 188.978 78.1634C188.838 78.2969 188.671 78.3636 188.475 78.3636ZM191.817 82.0625V86H190.811V79.4545H191.783V80.4773H191.868C192.021 80.1449 192.254 79.8778 192.567 79.6761C192.879 79.4716 193.283 79.3693 193.777 79.3693C194.22 79.3693 194.608 79.4602 194.94 79.642C195.273 79.821 195.531 80.0938 195.716 80.4602C195.901 80.8239 195.993 81.2841 195.993 81.8409V86H194.987V81.9091C194.987 81.3949 194.854 80.9943 194.587 80.7074C194.32 80.4176 193.953 80.2727 193.487 80.2727C193.166 80.2727 192.879 80.3423 192.626 80.4815C192.376 80.6207 192.179 80.8239 192.034 81.0909C191.889 81.358 191.817 81.6818 191.817 82.0625ZM200.473 88.5909C199.987 88.5909 199.569 88.5284 199.22 88.4034C198.87 88.2812 198.579 88.1193 198.346 87.9176C198.116 87.7188 197.933 87.5057 197.797 87.2784L198.598 86.7159C198.689 86.8352 198.804 86.9716 198.943 87.125C199.082 87.2812 199.272 87.4162 199.514 87.5298C199.758 87.6463 200.078 87.7045 200.473 87.7045C201.001 87.7045 201.437 87.5767 201.781 87.321C202.125 87.0653 202.297 86.6648 202.297 86.1193V84.7898H202.211C202.137 84.9091 202.032 85.0568 201.896 85.233C201.762 85.4062 201.569 85.5611 201.316 85.6974C201.066 85.831 200.728 85.8977 200.302 85.8977C199.774 85.8977 199.299 85.7727 198.879 85.5227C198.461 85.2727 198.13 84.9091 197.886 84.4318C197.645 83.9545 197.524 83.375 197.524 82.6932C197.524 82.0227 197.642 81.4389 197.877 80.9418C198.113 80.4418 198.441 80.0554 198.862 79.7827C199.282 79.5071 199.768 79.3693 200.319 79.3693C200.745 79.3693 201.083 79.4403 201.333 79.5824C201.586 79.7216 201.779 79.8807 201.913 80.0597C202.049 80.2358 202.154 80.3807 202.228 80.4943H202.331V79.4545H203.302V86.1875C203.302 86.75 203.174 87.2074 202.919 87.5597C202.666 87.9148 202.325 88.1747 201.896 88.3395C201.47 88.5071 200.995 88.5909 200.473 88.5909ZM200.439 84.9943C200.842 84.9943 201.183 84.902 201.461 84.7173C201.74 84.5327 201.951 84.267 202.096 83.9205C202.241 83.5739 202.314 83.1591 202.314 82.6761C202.314 82.2045 202.243 81.7884 202.1 81.4276C201.958 81.0668 201.748 80.7841 201.47 80.5795C201.191 80.375 200.848 80.2727 200.439 80.2727C200.012 80.2727 199.657 80.3807 199.373 80.5966C199.092 80.8125 198.88 81.1023 198.738 81.4659C198.599 81.8295 198.529 82.233 198.529 82.6761C198.529 83.1307 198.6 83.5327 198.743 83.8821C198.887 84.2287 199.1 84.5014 199.382 84.7003C199.666 84.8963 200.018 84.9943 200.439 84.9943ZM210.001 86L208.007 79.4545H209.064L210.478 84.4659H210.547L211.944 79.4545H213.018L214.399 84.4489H214.467L215.882 79.4545H216.939L214.944 86H213.956L212.524 80.9716H212.422L210.99 86H210.001ZM220.194 86.1534C219.779 86.1534 219.403 86.0753 219.065 85.919C218.727 85.7599 218.458 85.5312 218.26 85.233C218.061 84.9318 217.961 84.5682 217.961 84.142C217.961 83.767 218.035 83.4631 218.183 83.2301C218.331 82.9943 218.528 82.8097 218.775 82.6761C219.022 82.5426 219.295 82.4432 219.593 82.3778C219.895 82.3097 220.197 82.2557 220.501 82.2159C220.899 82.1648 221.221 82.1264 221.468 82.1009C221.718 82.0724 221.9 82.0256 222.014 81.9602C222.13 81.8949 222.189 81.7812 222.189 81.6193V81.5852C222.189 81.1648 222.074 80.8381 221.843 80.6051C221.616 80.3722 221.271 80.2557 220.808 80.2557C220.328 80.2557 219.951 80.3608 219.679 80.571C219.406 80.7812 219.214 81.0057 219.103 81.2443L218.149 80.9034C218.319 80.5057 218.547 80.196 218.831 79.9744C219.118 79.75 219.43 79.5937 219.768 79.5057C220.109 79.4148 220.444 79.3693 220.774 79.3693C220.984 79.3693 221.225 79.3949 221.498 79.446C221.774 79.4943 222.039 79.5952 222.295 79.7486C222.554 79.902 222.768 80.1335 222.939 80.4432C223.109 80.7528 223.194 81.1676 223.194 81.6875V86H222.189V85.1136H222.137C222.069 85.2557 221.956 85.4077 221.797 85.5696C221.637 85.7315 221.426 85.8693 221.162 85.983C220.897 86.0966 220.575 86.1534 220.194 86.1534ZM220.348 85.25C220.745 85.25 221.081 85.1719 221.353 85.0156C221.629 84.8594 221.836 84.6577 221.975 84.4105C222.118 84.1634 222.189 83.9034 222.189 83.6307V82.7102C222.146 82.7614 222.052 82.8082 221.907 82.8509C221.765 82.8906 221.6 82.9261 221.413 82.9574C221.228 82.9858 221.048 83.0114 220.872 83.0341C220.699 83.054 220.558 83.071 220.45 83.0852C220.189 83.1193 219.944 83.1747 219.717 83.2514C219.493 83.3253 219.311 83.4375 219.172 83.5881C219.035 83.7358 218.967 83.9375 218.967 84.1932C218.967 84.5426 219.096 84.8068 219.355 84.9858C219.616 85.1619 219.947 85.25 220.348 85.25ZM229.666 80.9205L228.763 81.1761C228.706 81.0256 228.622 80.8793 228.511 80.7372C228.403 80.5923 228.256 80.473 228.068 80.3793C227.881 80.2855 227.641 80.2386 227.348 80.2386C226.947 80.2386 226.614 80.331 226.347 80.5156C226.082 80.6974 225.95 80.929 225.95 81.2102C225.95 81.4602 226.041 81.6577 226.223 81.8026C226.405 81.9474 226.689 82.0682 227.075 82.1648L228.047 82.4034C228.632 82.5455 229.068 82.7628 229.355 83.0554C229.642 83.3452 229.786 83.7187 229.786 84.1761C229.786 84.5511 229.678 84.8864 229.462 85.1818C229.249 85.4773 228.95 85.7102 228.567 85.8807C228.183 86.0511 227.737 86.1364 227.229 86.1364C226.561 86.1364 226.009 85.9915 225.571 85.7017C225.134 85.4119 224.857 84.9886 224.74 84.4318L225.695 84.1932C225.786 84.5455 225.957 84.8097 226.21 84.9858C226.466 85.1619 226.8 85.25 227.212 85.25C227.68 85.25 228.053 85.1506 228.328 84.9517C228.607 84.75 228.746 84.5085 228.746 84.2273C228.746 84 228.666 83.8097 228.507 83.6562C228.348 83.5 228.104 83.3835 227.774 83.3068L226.683 83.0511C226.084 82.9091 225.643 82.6889 225.362 82.3906C225.084 82.0895 224.945 81.7131 224.945 81.2614C224.945 80.892 225.048 80.5653 225.256 80.2812C225.466 79.9972 225.751 79.7741 226.112 79.6122C226.476 79.4503 226.888 79.3693 227.348 79.3693C227.996 79.3693 228.504 79.5114 228.874 79.7955C229.246 80.0795 229.51 80.4545 229.666 80.9205ZM234.146 79.4545V80.3068H230.754V79.4545H234.146ZM231.743 77.8864H232.748V84.125C232.748 84.4091 232.789 84.6222 232.872 84.7642C232.957 84.9034 233.065 84.9972 233.196 85.0455C233.329 85.0909 233.47 85.1136 233.618 85.1136C233.728 85.1136 233.819 85.108 233.89 85.0966C233.961 85.0824 234.018 85.071 234.061 85.0625L234.265 85.9659C234.197 85.9915 234.102 86.017 233.98 86.0426C233.858 86.071 233.703 86.0852 233.515 86.0852C233.231 86.0852 232.953 86.0241 232.68 85.902C232.41 85.7798 232.186 85.5938 232.007 85.3438C231.831 85.0938 231.743 84.7784 231.743 84.3977V77.8864ZM238.333 86.1364C237.702 86.1364 237.158 85.9972 236.701 85.7188C236.246 85.4375 235.895 85.0455 235.648 84.5426C235.404 84.0369 235.282 83.4489 235.282 82.7784C235.282 82.108 235.404 81.517 235.648 81.0057C235.895 80.4915 236.239 80.0909 236.679 79.804C237.123 79.5142 237.64 79.3693 238.23 79.3693C238.571 79.3693 238.908 79.4261 239.24 79.5398C239.573 79.6534 239.875 79.8381 240.148 80.0938C240.421 80.3466 240.638 80.6818 240.8 81.0994C240.962 81.517 241.043 82.0312 241.043 82.642V83.0682H235.998V82.1989H240.02C240.02 81.8295 239.946 81.5 239.799 81.2102C239.654 80.9205 239.446 80.6918 239.176 80.5241C238.909 80.3565 238.594 80.2727 238.23 80.2727C237.83 80.2727 237.483 80.3722 237.191 80.571C236.901 80.767 236.678 81.0227 236.522 81.3381C236.365 81.6534 236.287 81.9915 236.287 82.3523V82.9318C236.287 83.4261 236.373 83.8452 236.543 84.1889C236.716 84.5298 236.956 84.7898 237.263 84.9688C237.57 85.1449 237.926 85.233 238.333 85.233C238.597 85.233 238.836 85.196 239.049 85.1222C239.265 85.0455 239.451 84.9318 239.607 84.7812C239.763 84.6278 239.884 84.4375 239.969 84.2102L240.941 84.483C240.838 84.8125 240.667 85.1023 240.425 85.3523C240.184 85.5994 239.885 85.7926 239.53 85.9318C239.175 86.0682 238.776 86.1364 238.333 86.1364ZM248.794 79.4545V80.3068H245.402V79.4545H248.794ZM246.391 77.8864H247.397V84.125C247.397 84.4091 247.438 84.6222 247.52 84.7642C247.605 84.9034 247.713 84.9972 247.844 85.0455C247.978 85.0909 248.118 85.1136 248.266 85.1136C248.377 85.1136 248.468 85.108 248.539 85.0966C248.61 85.0824 248.667 85.071 248.709 85.0625L248.914 85.9659C248.846 85.9915 248.75 86.017 248.628 86.0426C248.506 86.071 248.351 86.0852 248.164 86.0852C247.88 86.0852 247.601 86.0241 247.328 85.902C247.059 85.7798 246.834 85.5938 246.655 85.3438C246.479 85.0938 246.391 84.7784 246.391 84.3977V77.8864ZM250.955 88.4545C250.784 88.4545 250.632 88.4403 250.499 88.4119C250.365 88.3864 250.273 88.3608 250.222 88.3352L250.478 87.4489C250.722 87.5114 250.938 87.5341 251.125 87.517C251.313 87.5 251.479 87.4162 251.624 87.2656C251.772 87.1179 251.907 86.8778 252.029 86.5455L252.216 86.0341L249.796 79.4545H250.887L252.694 84.6705H252.762L254.569 79.4545H255.659L252.881 86.9545C252.756 87.2926 252.601 87.5724 252.417 87.794C252.232 88.0185 252.017 88.1847 251.773 88.2926C251.532 88.4006 251.259 88.4545 250.955 88.4545ZM256.987 88.4545V79.4545H257.958V80.4943H258.078C258.152 80.3807 258.254 80.2358 258.385 80.0597C258.518 79.8807 258.708 79.7216 258.956 79.5824C259.206 79.4403 259.544 79.3693 259.97 79.3693C260.521 79.3693 261.007 79.5071 261.427 79.7827C261.848 80.0582 262.176 80.4489 262.412 80.9545C262.647 81.4602 262.765 82.0568 262.765 82.7443C262.765 83.4375 262.647 84.0384 262.412 84.5469C262.176 85.0526 261.849 85.4446 261.431 85.723C261.014 85.9986 260.532 86.1364 259.987 86.1364C259.566 86.1364 259.23 86.0668 258.977 85.9276C258.724 85.7855 258.529 85.625 258.393 85.446C258.257 85.2642 258.152 85.1136 258.078 84.9943H257.993V88.4545H256.987ZM257.975 82.7273C257.975 83.2216 258.048 83.6577 258.193 84.0355C258.338 84.4105 258.549 84.7045 258.828 84.9176C259.106 85.1278 259.447 85.233 259.85 85.233C260.271 85.233 260.622 85.1222 260.903 84.9006C261.187 84.6761 261.4 84.375 261.542 83.9972C261.687 83.6165 261.76 83.1932 261.76 82.7273C261.76 82.267 261.689 81.8523 261.547 81.483C261.407 81.1108 261.196 80.8168 260.912 80.6009C260.63 80.3821 260.277 80.2727 259.85 80.2727C259.441 80.2727 259.098 80.3764 258.819 80.5838C258.541 80.7884 258.331 81.0753 258.189 81.4446C258.047 81.8111 257.975 82.2386 257.975 82.7273ZM267.044 86.1364C266.413 86.1364 265.869 85.9972 265.412 85.7188C264.957 85.4375 264.606 85.0455 264.359 84.5426C264.115 84.0369 263.993 83.4489 263.993 82.7784C263.993 82.108 264.115 81.517 264.359 81.0057C264.606 80.4915 264.95 80.0909 265.39 79.804C265.833 79.5142 266.35 79.3693 266.941 79.3693C267.282 79.3693 267.619 79.4261 267.951 79.5398C268.284 79.6534 268.586 79.8381 268.859 80.0938C269.132 80.3466 269.349 80.6818 269.511 81.0994C269.673 81.517 269.754 82.0312 269.754 82.642V83.0682H264.708V82.1989H268.731C268.731 81.8295 268.657 81.5 268.51 81.2102C268.365 80.9205 268.157 80.6918 267.887 80.5241C267.62 80.3565 267.305 80.2727 266.941 80.2727C266.541 80.2727 266.194 80.3722 265.902 80.571C265.612 80.767 265.389 81.0227 265.233 81.3381C265.076 81.6534 264.998 81.9915 264.998 82.3523V82.9318C264.998 83.4261 265.083 83.8452 265.254 84.1889C265.427 84.5298 265.667 84.7898 265.974 84.9688C266.281 85.1449 266.637 85.233 267.044 85.233C267.308 85.233 267.547 85.196 267.76 85.1222C267.975 85.0455 268.162 84.9318 268.318 84.7812C268.474 84.6278 268.595 84.4375 268.68 84.2102L269.652 84.483C269.549 84.8125 269.377 85.1023 269.136 85.3523C268.895 85.5994 268.596 85.7926 268.241 85.9318C267.886 86.0682 267.487 86.1364 267.044 86.1364Z" fill="black"/>
</svg>
