<svg width="298" height="128" viewBox="0 0 298 128" fill="none" xmlns="http://www.w3.org/2000/svg">
<rect width="298" height="128" rx="20" fill="#CCD6A6"/>
<path d="M63.4445 22.2957C47.1252 22.2957 33.9265 34.626 33.9265 49.8714C33.9265 70.5532 63.4445 101.084 63.4445 101.084C63.4445 101.084 92.9626 70.5532 92.9626 49.8714C92.9626 34.626 79.7638 22.2957 63.4445 22.2957ZM63.4445 59.7199C60.6486 59.7199 57.9671 58.6823 55.9901 56.8353C54.013 54.9884 52.9024 52.4834 52.9024 49.8714C52.9024 47.2594 54.013 44.7544 55.9901 42.9075C57.9671 41.0605 60.6486 40.0229 63.4445 40.0229C66.2405 40.0229 68.9219 41.0605 70.899 42.9075C72.876 44.7544 73.9867 47.2594 73.9867 49.8714C73.9867 52.4834 72.876 54.9884 70.899 56.8353C68.9219 58.6823 66.2405 59.7199 63.4445 59.7199Z" fill="#3E721D"/>
<path d="M134.114 55V37.5455H136.227V53.125H144.341V55H134.114ZM152.83 55.2727C151.568 55.2727 150.48 54.9943 149.565 54.4375C148.656 53.875 147.955 53.0909 147.46 52.0852C146.972 51.0739 146.727 49.8977 146.727 48.5568C146.727 47.2159 146.972 46.0341 147.46 45.0114C147.955 43.983 148.642 43.1818 149.523 42.608C150.409 42.0284 151.443 41.7386 152.625 41.7386C153.307 41.7386 153.98 41.8523 154.645 42.0795C155.31 42.3068 155.915 42.6761 156.46 43.1875C157.006 43.6932 157.44 44.3636 157.764 45.1989C158.088 46.0341 158.25 47.0625 158.25 48.2841V49.1364H148.159V47.3977H156.205C156.205 46.6591 156.057 46 155.761 45.4205C155.472 44.8409 155.057 44.3835 154.517 44.0483C153.983 43.7131 153.352 43.5455 152.625 43.5455C151.824 43.5455 151.131 43.7443 150.545 44.142C149.966 44.5341 149.52 45.0455 149.207 45.6761C148.895 46.3068 148.739 46.983 148.739 47.7045V48.8636C148.739 49.8523 148.909 50.6903 149.25 51.3778C149.597 52.0597 150.077 52.5795 150.69 52.9375C151.304 53.2898 152.017 53.4659 152.83 53.4659C153.358 53.4659 153.835 53.392 154.261 53.2443C154.693 53.0909 155.065 52.8636 155.378 52.5625C155.69 52.2557 155.932 51.875 156.102 51.4205L158.045 51.9659C157.841 52.625 157.497 53.2045 157.014 53.7045C156.531 54.1989 155.935 54.5852 155.224 54.8636C154.514 55.1364 153.716 55.2727 152.83 55.2727ZM167.003 41.9091V43.6136H160.219V41.9091H167.003ZM162.196 38.7727H164.207V51.25C164.207 51.8182 164.29 52.2443 164.455 52.5284C164.625 52.8068 164.841 52.9943 165.102 53.0909C165.369 53.1818 165.651 53.2273 165.946 53.2273C166.168 53.2273 166.349 53.2159 166.491 53.1932C166.634 53.1648 166.747 53.142 166.832 53.125L167.241 54.9318C167.105 54.983 166.915 55.0341 166.67 55.0852C166.426 55.142 166.116 55.1705 165.741 55.1705C165.173 55.1705 164.616 55.0483 164.071 54.804C163.531 54.5597 163.082 54.1875 162.724 53.6875C162.372 53.1875 162.196 52.5568 162.196 51.7955V38.7727ZM179.067 44.8409L177.26 45.3523C177.146 45.0511 176.979 44.7585 176.757 44.4744C176.541 44.1847 176.246 43.946 175.871 43.7585C175.496 43.571 175.016 43.4773 174.43 43.4773C173.629 43.4773 172.962 43.6619 172.428 44.0312C171.899 44.3949 171.635 44.858 171.635 45.4205C171.635 45.9205 171.817 46.3153 172.18 46.6051C172.544 46.8949 173.112 47.1364 173.885 47.3295L175.828 47.8068C176.999 48.0909 177.871 48.5256 178.445 49.1108C179.018 49.6903 179.305 50.4375 179.305 51.3523C179.305 52.1023 179.089 52.7727 178.658 53.3636C178.232 53.9545 177.635 54.4205 176.868 54.7614C176.101 55.1023 175.209 55.2727 174.192 55.2727C172.857 55.2727 171.751 54.983 170.876 54.4034C170.001 53.8239 169.447 52.9773 169.214 51.8636L171.124 51.3864C171.305 52.0909 171.649 52.6193 172.155 52.9716C172.666 53.3239 173.334 53.5 174.158 53.5C175.095 53.5 175.839 53.3011 176.391 52.9034C176.947 52.5 177.226 52.017 177.226 51.4545C177.226 51 177.067 50.6193 176.749 50.3125C176.43 50 175.942 49.767 175.283 49.6136L173.101 49.1023C171.902 48.8182 171.021 48.3778 170.459 47.7812C169.902 47.179 169.624 46.4261 169.624 45.5227C169.624 44.7841 169.831 44.1307 170.246 43.5625C170.666 42.9943 171.237 42.5483 171.959 42.2244C172.686 41.9006 173.51 41.7386 174.43 41.7386C175.726 41.7386 176.743 42.0227 177.482 42.5909C178.226 43.1591 178.754 43.9091 179.067 44.8409ZM189.356 55V37.5455H199.822V39.4205H191.469V45.3182H199.038V47.1932H191.469V55H189.356ZM203.169 55V41.9091H205.18V55H203.169ZM204.192 39.7273C203.8 39.7273 203.462 39.5938 203.178 39.3267C202.899 39.0597 202.76 38.7386 202.76 38.3636C202.76 37.9886 202.899 37.6676 203.178 37.4006C203.462 37.1335 203.8 37 204.192 37C204.584 37 204.919 37.1335 205.197 37.4006C205.482 37.6676 205.624 37.9886 205.624 38.3636C205.624 38.7386 205.482 39.0597 205.197 39.3267C204.919 39.5938 204.584 39.7273 204.192 39.7273ZM210.876 47.125V55H208.864V41.9091H210.808V43.9545H210.978C211.285 43.2898 211.751 42.7557 212.376 42.3523C213.001 41.9432 213.808 41.7386 214.796 41.7386C215.683 41.7386 216.458 41.9205 217.123 42.2841C217.788 42.642 218.305 43.1875 218.674 43.9205C219.043 44.6477 219.228 45.5682 219.228 46.6818V55H217.217V46.8182C217.217 45.7898 216.95 44.9886 216.415 44.4148C215.881 43.8352 215.148 43.5455 214.217 43.5455C213.575 43.5455 213.001 43.6847 212.495 43.9631C211.995 44.2415 211.6 44.6477 211.31 45.1818C211.021 45.7159 210.876 46.3636 210.876 47.125ZM227.847 55.2727C226.756 55.2727 225.793 54.9972 224.957 54.446C224.122 53.8892 223.469 53.1051 222.997 52.0938C222.526 51.0767 222.29 49.875 222.29 48.4886C222.29 47.1136 222.526 45.9205 222.997 44.9091C223.469 43.8977 224.125 43.1165 224.966 42.5653C225.807 42.0142 226.778 41.7386 227.881 41.7386C228.733 41.7386 229.406 41.8807 229.901 42.1648C230.401 42.4432 230.781 42.7614 231.043 43.1193C231.31 43.4716 231.517 43.7614 231.665 43.9886H231.835V37.5455H233.847V55H231.903V52.9886H231.665C231.517 53.2273 231.307 53.5284 231.034 53.892C230.761 54.25 230.372 54.571 229.866 54.8551C229.361 55.1335 228.688 55.2727 227.847 55.2727ZM228.119 53.4659C228.926 53.4659 229.608 53.2557 230.165 52.8352C230.722 52.4091 231.145 51.821 231.435 51.071C231.724 50.3153 231.869 49.4432 231.869 48.4545C231.869 47.4773 231.727 46.6222 231.443 45.8892C231.159 45.1506 230.739 44.5767 230.182 44.1676C229.625 43.7528 228.938 43.5455 228.119 43.5455C227.267 43.5455 226.557 43.7642 225.989 44.2017C225.426 44.6335 225.003 45.2216 224.719 45.9659C224.44 46.7045 224.301 47.5341 224.301 48.4545C224.301 49.3864 224.443 50.233 224.727 50.9943C225.017 51.75 225.443 52.3523 226.006 52.8011C226.574 53.2443 227.278 53.4659 228.119 53.4659ZM256.287 37.5455H258.401V49.1023C258.401 50.2955 258.119 51.3608 257.557 52.2983C257 53.2301 256.213 53.9659 255.196 54.5057C254.179 55.0398 252.986 55.3068 251.616 55.3068C250.247 55.3068 249.054 55.0398 248.037 54.5057C247.02 53.9659 246.23 53.2301 245.668 52.2983C245.111 51.3608 244.832 50.2955 244.832 49.1023V37.5455H246.946V48.9318C246.946 49.7841 247.134 50.5426 247.509 51.2074C247.884 51.8665 248.418 52.3864 249.111 52.767C249.81 53.142 250.645 53.3295 251.616 53.3295C252.588 53.3295 253.423 53.142 254.122 52.767C254.821 52.3864 255.355 51.8665 255.724 51.2074C256.099 50.5426 256.287 49.7841 256.287 48.9318V37.5455ZM271.621 44.8409L269.815 45.3523C269.701 45.0511 269.533 44.7585 269.312 44.4744C269.096 44.1847 268.8 43.946 268.425 43.7585C268.05 43.571 267.57 43.4773 266.985 43.4773C266.184 43.4773 265.516 43.6619 264.982 44.0312C264.454 44.3949 264.19 44.858 264.19 45.4205C264.19 45.9205 264.371 46.3153 264.735 46.6051C265.099 46.8949 265.667 47.1364 266.44 47.3295L268.383 47.8068C269.553 48.0909 270.425 48.5256 270.999 49.1108C271.573 49.6903 271.86 50.4375 271.86 51.3523C271.86 52.1023 271.644 52.7727 271.212 53.3636C270.786 53.9545 270.19 54.4205 269.423 54.7614C268.656 55.1023 267.763 55.2727 266.746 55.2727C265.411 55.2727 264.306 54.983 263.431 54.4034C262.556 53.8239 262.002 52.9773 261.769 51.8636L263.678 51.3864C263.86 52.0909 264.204 52.6193 264.71 52.9716C265.221 53.3239 265.888 53.5 266.712 53.5C267.65 53.5 268.394 53.3011 268.945 52.9034C269.502 52.5 269.781 52.017 269.781 51.4545C269.781 51 269.621 50.6193 269.303 50.3125C268.985 50 268.496 49.767 267.837 49.6136L265.656 49.1023C264.457 48.8182 263.576 48.3778 263.013 47.7812C262.457 47.179 262.178 46.4261 262.178 45.5227C262.178 44.7841 262.386 44.1307 262.8 43.5625C263.221 42.9943 263.792 42.5483 264.513 42.2244C265.241 41.9006 266.065 41.7386 266.985 41.7386C268.281 41.7386 269.298 42.0227 270.036 42.5909C270.781 43.1591 271.309 43.9091 271.621 44.8409ZM277.547 37.5455L277.376 50.0909H275.399L275.229 37.5455H277.547ZM276.388 55.1364C275.967 55.1364 275.607 54.9858 275.305 54.6847C275.004 54.3835 274.854 54.0227 274.854 53.6023C274.854 53.1818 275.004 52.821 275.305 52.5199C275.607 52.2187 275.967 52.0682 276.388 52.0682C276.808 52.0682 277.169 52.2187 277.47 52.5199C277.771 52.821 277.922 53.1818 277.922 53.6023C277.922 53.8807 277.851 54.1364 277.709 54.3693C277.572 54.6023 277.388 54.7898 277.155 54.9318C276.928 55.0682 276.672 55.1364 276.388 55.1364Z" fill="black"/>
<path d="M131.307 68.2727H132.517L134.938 72.3466H135.04L137.46 68.2727H138.67L135.517 73.4034V77H134.46V73.4034L131.307 68.2727ZM141.634 77.1364C141.043 77.1364 140.525 76.9957 140.079 76.7145C139.636 76.4332 139.289 76.0398 139.039 75.5341C138.792 75.0284 138.668 74.4375 138.668 73.7614C138.668 73.0795 138.792 72.4844 139.039 71.9759C139.289 71.4673 139.636 71.0724 140.079 70.7912C140.525 70.5099 141.043 70.3693 141.634 70.3693C142.225 70.3693 142.742 70.5099 143.185 70.7912C143.631 71.0724 143.978 71.4673 144.225 71.9759C144.475 72.4844 144.6 73.0795 144.6 73.7614C144.6 74.4375 144.475 75.0284 144.225 75.5341C143.978 76.0398 143.631 76.4332 143.185 76.7145C142.742 76.9957 142.225 77.1364 141.634 77.1364ZM141.634 76.233C142.083 76.233 142.452 76.1179 142.742 75.8878C143.032 75.6577 143.246 75.3551 143.386 74.9801C143.525 74.6051 143.594 74.1989 143.594 73.7614C143.594 73.3239 143.525 72.9162 143.386 72.5384C143.246 72.1605 143.032 71.8551 142.742 71.6222C142.452 71.3892 142.083 71.2727 141.634 71.2727C141.185 71.2727 140.816 71.3892 140.526 71.6222C140.237 71.8551 140.022 72.1605 139.883 72.5384C139.744 72.9162 139.674 73.3239 139.674 73.7614C139.674 74.1989 139.744 74.6051 139.883 74.9801C140.022 75.3551 140.237 75.6577 140.526 75.8878C140.816 76.1179 141.185 76.233 141.634 76.233ZM150.26 74.3239V70.4545H151.266V77H150.26V75.892H150.192C150.039 76.2244 149.8 76.5071 149.476 76.7401C149.152 76.9702 148.743 77.0852 148.249 77.0852C147.84 77.0852 147.476 76.9957 147.158 76.8168C146.84 76.6349 146.59 76.3622 146.408 75.9986C146.226 75.6321 146.135 75.1705 146.135 74.6136V70.4545H147.141V74.5455C147.141 75.0227 147.275 75.4034 147.542 75.6875C147.811 75.9716 148.155 76.1136 148.573 76.1136C148.823 76.1136 149.077 76.0497 149.336 75.9219C149.597 75.794 149.816 75.598 149.992 75.3338C150.171 75.0696 150.26 74.733 150.26 74.3239ZM159.142 77.1364C158.528 77.1364 158 76.9915 157.557 76.7017C157.114 76.4119 156.773 76.0128 156.534 75.5043C156.295 74.9957 156.176 74.4148 156.176 73.7614C156.176 73.0966 156.298 72.5099 156.543 72.0014C156.79 71.4901 157.134 71.0909 157.574 70.804C158.017 70.5142 158.534 70.3693 159.125 70.3693C159.585 70.3693 160 70.4545 160.369 70.625C160.739 70.7955 161.041 71.0341 161.277 71.3409C161.513 71.6477 161.659 72.0057 161.716 72.4148H160.71C160.634 72.1165 160.463 71.8523 160.199 71.6222C159.938 71.3892 159.585 71.2727 159.142 71.2727C158.75 71.2727 158.406 71.375 158.111 71.5795C157.818 71.7812 157.589 72.0668 157.425 72.4361C157.263 72.8026 157.182 73.233 157.182 73.7273C157.182 74.233 157.261 74.6733 157.42 75.0483C157.582 75.4233 157.81 75.7145 158.102 75.9219C158.398 76.1293 158.744 76.233 159.142 76.233C159.403 76.233 159.641 76.1875 159.854 76.0966C160.067 76.0057 160.247 75.875 160.395 75.7045C160.543 75.5341 160.648 75.3295 160.71 75.0909H161.716C161.659 75.4773 161.518 75.8253 161.294 76.1349C161.072 76.4418 160.778 76.6861 160.412 76.8679C160.048 77.0469 159.625 77.1364 159.142 77.1364ZM165.112 77.1534C164.697 77.1534 164.321 77.0753 163.983 76.919C163.645 76.7599 163.376 76.5312 163.178 76.233C162.979 75.9318 162.879 75.5682 162.879 75.142C162.879 74.767 162.953 74.4631 163.101 74.2301C163.249 73.9943 163.446 73.8097 163.693 73.6761C163.94 73.5426 164.213 73.4432 164.511 73.3778C164.813 73.3097 165.115 73.2557 165.419 73.2159C165.817 73.1648 166.139 73.1264 166.386 73.1009C166.636 73.0724 166.818 73.0256 166.932 72.9602C167.048 72.8949 167.107 72.7812 167.107 72.6193V72.5852C167.107 72.1648 166.991 71.8381 166.761 71.6051C166.534 71.3722 166.189 71.2557 165.726 71.2557C165.246 71.2557 164.869 71.3608 164.597 71.571C164.324 71.7812 164.132 72.0057 164.021 72.2443L163.067 71.9034C163.237 71.5057 163.464 71.196 163.749 70.9744C164.036 70.75 164.348 70.5937 164.686 70.5057C165.027 70.4148 165.362 70.3693 165.692 70.3693C165.902 70.3693 166.143 70.3949 166.416 70.446C166.692 70.4943 166.957 70.5952 167.213 70.7486C167.472 70.902 167.686 71.1335 167.857 71.4432C168.027 71.7528 168.112 72.1676 168.112 72.6875V77H167.107V76.1136H167.055C166.987 76.2557 166.874 76.4077 166.714 76.5696C166.555 76.7315 166.344 76.8693 166.08 76.983C165.815 77.0966 165.493 77.1534 165.112 77.1534ZM165.266 76.25C165.663 76.25 165.999 76.1719 166.271 76.0156C166.547 75.8594 166.754 75.6577 166.893 75.4105C167.036 75.1634 167.107 74.9034 167.107 74.6307V73.7102C167.064 73.7614 166.97 73.8082 166.825 73.8509C166.683 73.8906 166.518 73.9261 166.331 73.9574C166.146 73.9858 165.966 74.0114 165.79 74.0341C165.616 74.054 165.476 74.071 165.368 74.0852C165.107 74.1193 164.862 74.1747 164.635 74.2514C164.411 74.3253 164.229 74.4375 164.089 74.5881C163.953 74.7358 163.885 74.9375 163.885 75.1932C163.885 75.5426 164.014 75.8068 164.273 75.9858C164.534 76.1619 164.865 76.25 165.266 76.25ZM170.953 73.0625V77H169.948V70.4545H170.919V71.4773H171.005C171.158 71.1449 171.391 70.8778 171.703 70.6761C172.016 70.4716 172.419 70.3693 172.914 70.3693C173.357 70.3693 173.745 70.4602 174.077 70.642C174.409 70.821 174.668 71.0938 174.853 71.4602C175.037 71.8239 175.13 72.2841 175.13 72.8409V77H174.124V72.9091C174.124 72.3949 173.99 71.9943 173.723 71.7074C173.456 71.4176 173.09 71.2727 172.624 71.2727C172.303 71.2727 172.016 71.3423 171.763 71.4815C171.513 71.6207 171.316 71.8239 171.171 72.0909C171.026 72.358 170.953 72.6818 170.953 73.0625ZM183.087 77.1364C182.456 77.1364 181.912 76.9972 181.455 76.7188C181 76.4375 180.649 76.0455 180.402 75.5426C180.158 75.0369 180.036 74.4489 180.036 73.7784C180.036 73.108 180.158 72.517 180.402 72.0057C180.649 71.4915 180.993 71.0909 181.433 70.804C181.876 70.5142 182.393 70.3693 182.984 70.3693C183.325 70.3693 183.662 70.4261 183.994 70.5398C184.327 70.6534 184.629 70.8381 184.902 71.0938C185.175 71.3466 185.392 71.6818 185.554 72.0994C185.716 72.517 185.797 73.0312 185.797 73.642V74.0682H180.751V73.1989H184.774C184.774 72.8295 184.7 72.5 184.553 72.2102C184.408 71.9205 184.2 71.6918 183.93 71.5241C183.663 71.3565 183.348 71.2727 182.984 71.2727C182.584 71.2727 182.237 71.3722 181.945 71.571C181.655 71.767 181.432 72.0227 181.276 72.3381C181.119 72.6534 181.041 72.9915 181.041 73.3523V73.9318C181.041 74.4261 181.126 74.8452 181.297 75.1889C181.47 75.5298 181.71 75.7898 182.017 75.9688C182.324 76.1449 182.68 76.233 183.087 76.233C183.351 76.233 183.589 76.196 183.803 76.1222C184.018 76.0455 184.205 75.9318 184.361 75.7812C184.517 75.6278 184.638 75.4375 184.723 75.2102L185.695 75.483C185.592 75.8125 185.42 76.1023 185.179 76.3523C184.938 76.5994 184.639 76.7926 184.284 76.9318C183.929 77.0682 183.53 77.1364 183.087 77.1364ZM187.901 70.4545L189.469 73.1307L191.037 70.4545H192.196L190.083 73.7273L192.196 77H191.037L189.469 74.4602L187.901 77H186.742L188.821 73.7273L186.742 70.4545H187.901ZM196.021 77.1364C195.407 77.1364 194.879 76.9915 194.436 76.7017C193.993 76.4119 193.652 76.0128 193.413 75.5043C193.174 74.9957 193.055 74.4148 193.055 73.7614C193.055 73.0966 193.177 72.5099 193.422 72.0014C193.669 71.4901 194.012 71.0909 194.453 70.804C194.896 70.5142 195.413 70.3693 196.004 70.3693C196.464 70.3693 196.879 70.4545 197.248 70.625C197.618 70.7955 197.92 71.0341 198.156 71.3409C198.392 71.6477 198.538 72.0057 198.595 72.4148H197.589C197.512 72.1165 197.342 71.8523 197.078 71.6222C196.816 71.3892 196.464 71.2727 196.021 71.2727C195.629 71.2727 195.285 71.375 194.99 71.5795C194.697 71.7812 194.468 72.0668 194.304 72.4361C194.142 72.8026 194.061 73.233 194.061 73.7273C194.061 74.233 194.14 74.6733 194.299 75.0483C194.461 75.4233 194.689 75.7145 194.981 75.9219C195.277 76.1293 195.623 76.233 196.021 76.233C196.282 76.233 196.52 76.1875 196.733 76.0966C196.946 76.0057 197.126 75.875 197.274 75.7045C197.422 75.5341 197.527 75.3295 197.589 75.0909H198.595C198.538 75.4773 198.397 75.8253 198.173 76.1349C197.951 76.4418 197.657 76.6861 197.291 76.8679C196.927 77.0469 196.504 77.1364 196.021 77.1364ZM201.071 73.0625V77H200.065V68.2727H201.071V71.4773H201.156C201.309 71.1392 201.539 70.8707 201.846 70.6719C202.156 70.4702 202.568 70.3693 203.082 70.3693C203.528 70.3693 203.919 70.4588 204.254 70.6378C204.589 70.8139 204.849 71.0852 205.034 71.4517C205.221 71.8153 205.315 72.2784 205.315 72.8409V77H204.309V72.9091C204.309 72.3892 204.174 71.9872 203.904 71.7031C203.637 71.4162 203.267 71.2727 202.792 71.2727C202.463 71.2727 202.167 71.3423 201.906 71.4815C201.647 71.6207 201.443 71.8239 201.292 72.0909C201.145 72.358 201.071 72.6818 201.071 73.0625ZM209.081 77.1534C208.666 77.1534 208.29 77.0753 207.952 76.919C207.614 76.7599 207.345 76.5312 207.146 76.233C206.947 75.9318 206.848 75.5682 206.848 75.142C206.848 74.767 206.922 74.4631 207.07 74.2301C207.217 73.9943 207.415 73.8097 207.662 73.6761C207.909 73.5426 208.182 73.4432 208.48 73.3778C208.781 73.3097 209.084 73.2557 209.388 73.2159C209.786 73.1648 210.108 73.1264 210.355 73.1009C210.605 73.0724 210.787 73.0256 210.901 72.9602C211.017 72.8949 211.075 72.7812 211.075 72.6193V72.5852C211.075 72.1648 210.96 71.8381 210.73 71.6051C210.503 71.3722 210.158 71.2557 209.695 71.2557C209.214 71.2557 208.838 71.3608 208.565 71.571C208.293 71.7812 208.101 72.0057 207.99 72.2443L207.036 71.9034C207.206 71.5057 207.433 71.196 207.717 70.9744C208.004 70.75 208.317 70.5937 208.655 70.5057C208.996 70.4148 209.331 70.3693 209.661 70.3693C209.871 70.3693 210.112 70.3949 210.385 70.446C210.661 70.4943 210.926 70.5952 211.182 70.7486C211.44 70.902 211.655 71.1335 211.825 71.4432C211.996 71.7528 212.081 72.1676 212.081 72.6875V77H211.075V76.1136H211.024C210.956 76.2557 210.842 76.4077 210.683 76.5696C210.524 76.7315 210.313 76.8693 210.048 76.983C209.784 77.0966 209.462 77.1534 209.081 77.1534ZM209.234 76.25C209.632 76.25 209.967 76.1719 210.24 76.0156C210.516 75.8594 210.723 75.6577 210.862 75.4105C211.004 75.1634 211.075 74.9034 211.075 74.6307V73.7102C211.033 73.7614 210.939 73.8082 210.794 73.8509C210.652 73.8906 210.487 73.9261 210.3 73.9574C210.115 73.9858 209.935 74.0114 209.759 74.0341C209.585 74.054 209.445 74.071 209.337 74.0852C209.075 74.1193 208.831 74.1747 208.604 74.2514C208.379 74.3253 208.197 74.4375 208.058 74.5881C207.922 74.7358 207.854 74.9375 207.854 75.1932C207.854 75.5426 207.983 75.8068 208.241 75.9858C208.503 76.1619 208.834 76.25 209.234 76.25ZM214.922 73.0625V77H213.917V70.4545H214.888V71.4773H214.973C215.127 71.1449 215.36 70.8778 215.672 70.6761C215.985 70.4716 216.388 70.3693 216.882 70.3693C217.326 70.3693 217.713 70.4602 218.046 70.642C218.378 70.821 218.637 71.0938 218.821 71.4602C219.006 71.8239 219.098 72.2841 219.098 72.8409V77H218.093V72.9091C218.093 72.3949 217.959 71.9943 217.692 71.7074C217.425 71.4176 217.059 71.2727 216.593 71.2727C216.272 71.2727 215.985 71.3423 215.732 71.4815C215.482 71.6207 215.284 71.8239 215.14 72.0909C214.995 72.358 214.922 72.6818 214.922 73.0625ZM223.578 79.5909C223.092 79.5909 222.675 79.5284 222.325 79.4034C221.976 79.2812 221.685 79.1193 221.452 78.9176C221.222 78.7188 221.038 78.5057 220.902 78.2784L221.703 77.7159C221.794 77.8352 221.909 77.9716 222.048 78.125C222.188 78.2812 222.378 78.4162 222.619 78.5298C222.864 78.6463 223.183 78.7045 223.578 78.7045C224.107 78.7045 224.543 78.5767 224.886 78.321C225.23 78.0653 225.402 77.6648 225.402 77.1193V75.7898H225.317C225.243 75.9091 225.138 76.0568 225.001 76.233C224.868 76.4062 224.675 76.5611 224.422 76.6974C224.172 76.831 223.834 76.8977 223.408 76.8977C222.879 76.8977 222.405 76.7727 221.984 76.5227C221.567 76.2727 221.236 75.9091 220.991 75.4318C220.75 74.9545 220.629 74.375 220.629 73.6932C220.629 73.0227 220.747 72.4389 220.983 71.9418C221.219 71.4418 221.547 71.0554 221.967 70.7827C222.388 70.5071 222.874 70.3693 223.425 70.3693C223.851 70.3693 224.189 70.4403 224.439 70.5824C224.692 70.7216 224.885 70.8807 225.018 71.0597C225.155 71.2358 225.26 71.3807 225.334 71.4943H225.436V70.4545H226.408V77.1875C226.408 77.75 226.28 78.2074 226.024 78.5597C225.771 78.9148 225.43 79.1747 225.001 79.3395C224.575 79.5071 224.101 79.5909 223.578 79.5909ZM223.544 75.9943C223.947 75.9943 224.288 75.902 224.567 75.7173C224.845 75.5327 225.057 75.267 225.202 74.9205C225.347 74.5739 225.419 74.1591 225.419 73.6761C225.419 73.2045 225.348 72.7884 225.206 72.4276C225.064 72.0668 224.854 71.7841 224.575 71.5795C224.297 71.375 223.953 71.2727 223.544 71.2727C223.118 71.2727 222.763 71.3807 222.479 71.5966C222.197 71.8125 221.986 72.1023 221.844 72.4659C221.705 72.8295 221.635 73.233 221.635 73.6761C221.635 74.1307 221.706 74.5327 221.848 74.8821C221.993 75.2287 222.206 75.5014 222.487 75.7003C222.771 75.8963 223.124 75.9943 223.544 75.9943ZM230.993 77.1364C230.362 77.1364 229.818 76.9972 229.361 76.7188C228.906 76.4375 228.555 76.0455 228.308 75.5426C228.064 75.0369 227.942 74.4489 227.942 73.7784C227.942 73.108 228.064 72.517 228.308 72.0057C228.555 71.4915 228.899 71.0909 229.339 70.804C229.783 70.5142 230.3 70.3693 230.891 70.3693C231.232 70.3693 231.568 70.4261 231.901 70.5398C232.233 70.6534 232.536 70.8381 232.808 71.0938C233.081 71.3466 233.298 71.6818 233.46 72.0994C233.622 72.517 233.703 73.0312 233.703 73.642V74.0682H228.658V73.1989H232.68C232.68 72.8295 232.607 72.5 232.459 72.2102C232.314 71.9205 232.107 71.6918 231.837 71.5241C231.57 71.3565 231.254 71.2727 230.891 71.2727C230.49 71.2727 230.143 71.3722 229.851 71.571C229.561 71.767 229.338 72.0227 229.182 72.3381C229.026 72.6534 228.947 72.9915 228.947 73.3523V73.9318C228.947 74.4261 229.033 74.8452 229.203 75.1889C229.376 75.5298 229.616 75.7898 229.923 75.9688C230.23 76.1449 230.587 76.233 230.993 76.233C231.257 76.233 231.496 76.196 231.709 76.1222C231.925 76.0455 232.111 75.9318 232.267 75.7812C232.423 75.6278 232.544 75.4375 232.629 75.2102L233.601 75.483C233.499 75.8125 233.327 76.1023 233.085 76.3523C232.844 76.5994 232.545 76.7926 232.19 76.9318C231.835 77.0682 231.436 77.1364 230.993 77.1364ZM239.256 79.4545C239.085 79.4545 238.933 79.4403 238.8 79.4119C238.666 79.3864 238.574 79.3608 238.523 79.3352L238.778 78.4489C239.023 78.5114 239.239 78.5341 239.426 78.517C239.614 78.5 239.78 78.4162 239.925 78.2656C240.072 78.1179 240.207 77.8778 240.33 77.5455L240.517 77.0341L238.097 70.4545H239.188L240.994 75.6705H241.062L242.869 70.4545H243.96L241.182 77.9545C241.057 78.2926 240.902 78.5724 240.717 78.794C240.533 79.0185 240.318 79.1847 240.074 79.2926C239.832 79.4006 239.56 79.4545 239.256 79.4545ZM247.712 77.1364C247.121 77.1364 246.603 76.9957 246.157 76.7145C245.714 76.4332 245.367 76.0398 245.117 75.5341C244.87 75.0284 244.746 74.4375 244.746 73.7614C244.746 73.0795 244.87 72.4844 245.117 71.9759C245.367 71.4673 245.714 71.0724 246.157 70.7912C246.603 70.5099 247.121 70.3693 247.712 70.3693C248.303 70.3693 248.82 70.5099 249.263 70.7912C249.71 71.0724 250.056 71.4673 250.303 71.9759C250.553 72.4844 250.678 73.0795 250.678 73.7614C250.678 74.4375 250.553 75.0284 250.303 75.5341C250.056 76.0398 249.71 76.4332 249.263 76.7145C248.82 76.9957 248.303 77.1364 247.712 77.1364ZM247.712 76.233C248.161 76.233 248.531 76.1179 248.82 75.8878C249.11 75.6577 249.325 75.3551 249.464 74.9801C249.603 74.6051 249.673 74.1989 249.673 73.7614C249.673 73.3239 249.603 72.9162 249.464 72.5384C249.325 72.1605 249.11 71.8551 248.82 71.6222C248.531 71.3892 248.161 71.2727 247.712 71.2727C247.263 71.2727 246.894 71.3892 246.604 71.6222C246.315 71.8551 246.1 72.1605 245.961 72.5384C245.822 72.9162 245.752 73.3239 245.752 73.7614C245.752 74.1989 245.822 74.6051 245.961 74.9801C246.1 75.3551 246.315 75.6577 246.604 75.8878C246.894 76.1179 247.263 76.233 247.712 76.233ZM256.338 74.3239V70.4545H257.344V77H256.338V75.892H256.27C256.117 76.2244 255.878 76.5071 255.554 76.7401C255.23 76.9702 254.821 77.0852 254.327 77.0852C253.918 77.0852 253.554 76.9957 253.236 76.8168C252.918 76.6349 252.668 76.3622 252.486 75.9986C252.304 75.6321 252.213 75.1705 252.213 74.6136V70.4545H253.219V74.5455C253.219 75.0227 253.353 75.4034 253.62 75.6875C253.89 75.9716 254.233 76.1136 254.651 76.1136C254.901 76.1136 255.155 76.0497 255.414 75.9219C255.675 75.794 255.894 75.598 256.07 75.3338C256.249 75.0696 256.338 74.733 256.338 74.3239ZM259.186 77V70.4545H260.158V71.4432H260.226C260.345 71.1193 260.561 70.8565 260.874 70.6548C261.186 70.4531 261.538 70.3523 261.93 70.3523C262.004 70.3523 262.097 70.3537 262.207 70.3565C262.318 70.3594 262.402 70.3636 262.459 70.3693V71.392C262.425 71.3835 262.347 71.3707 262.224 71.3537C262.105 71.3338 261.979 71.3239 261.845 71.3239C261.527 71.3239 261.243 71.3906 260.993 71.5241C260.746 71.6548 260.55 71.8366 260.405 72.0696C260.263 72.2997 260.192 72.5625 260.192 72.858V77H259.186ZM133.403 92L131.409 85.4545H132.466L133.881 90.4659H133.949L135.347 85.4545H136.42L137.801 90.4489H137.869L139.284 85.4545H140.341L138.347 92H137.358L135.926 86.9716H135.824L134.392 92H133.403ZM143.597 92.1534C143.182 92.1534 142.805 92.0753 142.467 91.919C142.129 91.7599 141.861 91.5312 141.662 91.233C141.463 90.9318 141.364 90.5682 141.364 90.142C141.364 89.767 141.438 89.4631 141.585 89.2301C141.733 88.9943 141.93 88.8097 142.178 88.6761C142.425 88.5426 142.697 88.4432 142.996 88.3778C143.297 88.3097 143.599 88.2557 143.903 88.2159C144.301 88.1648 144.624 88.1264 144.871 88.1009C145.121 88.0724 145.303 88.0256 145.416 87.9602C145.533 87.8949 145.591 87.7812 145.591 87.6193V87.5852C145.591 87.1648 145.476 86.8381 145.246 86.6051C145.018 86.3722 144.673 86.2557 144.21 86.2557C143.73 86.2557 143.354 86.3608 143.081 86.571C142.808 86.7812 142.616 87.0057 142.506 87.2443L141.551 86.9034C141.722 86.5057 141.949 86.196 142.233 85.9744C142.52 85.75 142.832 85.5937 143.17 85.5057C143.511 85.4148 143.847 85.3693 144.176 85.3693C144.386 85.3693 144.628 85.3949 144.901 85.446C145.176 85.4943 145.442 85.5952 145.697 85.7486C145.956 85.902 146.17 86.1335 146.341 86.4432C146.511 86.7528 146.597 87.1676 146.597 87.6875V92H145.591V91.1136H145.54C145.472 91.2557 145.358 91.4077 145.199 91.5696C145.04 91.7315 144.828 91.8693 144.564 91.983C144.3 92.0966 143.977 92.1534 143.597 92.1534ZM143.75 91.25C144.148 91.25 144.483 91.1719 144.756 91.0156C145.031 90.8594 145.239 90.6577 145.378 90.4105C145.52 90.1634 145.591 89.9034 145.591 89.6307V88.7102C145.548 88.7614 145.455 88.8082 145.31 88.8509C145.168 88.8906 145.003 88.9261 144.815 88.9574C144.631 88.9858 144.45 89.0114 144.274 89.0341C144.101 89.054 143.96 89.071 143.852 89.0852C143.591 89.1193 143.347 89.1747 143.119 89.2514C142.895 89.3253 142.713 89.4375 142.574 89.5881C142.438 89.7358 142.369 89.9375 142.369 90.1932C142.369 90.5426 142.499 90.8068 142.757 90.9858C143.018 91.1619 143.349 91.25 143.75 91.25ZM153.069 86.9205L152.165 87.1761C152.108 87.0256 152.025 86.8793 151.914 86.7372C151.806 86.5923 151.658 86.473 151.471 86.3793C151.283 86.2855 151.043 86.2386 150.75 86.2386C150.35 86.2386 150.016 86.331 149.749 86.5156C149.485 86.6974 149.353 86.929 149.353 87.2102C149.353 87.4602 149.444 87.6577 149.625 87.8026C149.807 87.9474 150.091 88.0682 150.478 88.1648L151.449 88.4034C152.034 88.5455 152.471 88.7628 152.757 89.0554C153.044 89.3452 153.188 89.7187 153.188 90.1761C153.188 90.5511 153.08 90.8864 152.864 91.1818C152.651 91.4773 152.353 91.7102 151.969 91.8807C151.586 92.0511 151.14 92.1364 150.631 92.1364C149.963 92.1364 149.411 91.9915 148.973 91.7017C148.536 91.4119 148.259 90.9886 148.142 90.4318L149.097 90.1932C149.188 90.5455 149.36 90.8097 149.613 90.9858C149.868 91.1619 150.202 91.25 150.614 91.25C151.083 91.25 151.455 91.1506 151.73 90.9517C152.009 90.75 152.148 90.5085 152.148 90.2273C152.148 90 152.069 89.8097 151.909 89.6562C151.75 89.5 151.506 89.3835 151.176 89.3068L150.086 89.0511C149.486 88.9091 149.046 88.6889 148.765 88.3906C148.486 88.0895 148.347 87.7131 148.347 87.2614C148.347 86.892 148.451 86.5653 148.658 86.2812C148.868 85.9972 149.154 85.7741 149.515 85.6122C149.878 85.4503 150.29 85.3693 150.75 85.3693C151.398 85.3693 151.907 85.5114 152.276 85.7955C152.648 86.0795 152.912 86.4545 153.069 86.9205ZM157.548 85.4545V86.3068H154.156V85.4545H157.548ZM155.145 83.8864H156.151V90.125C156.151 90.4091 156.192 90.6222 156.274 90.7642C156.359 90.9034 156.467 90.9972 156.598 91.0455C156.732 91.0909 156.872 91.1136 157.02 91.1136C157.131 91.1136 157.222 91.108 157.293 91.0966C157.364 91.0824 157.42 91.071 157.463 91.0625L157.668 91.9659C157.599 91.9915 157.504 92.017 157.382 92.0426C157.26 92.071 157.105 92.0852 156.918 92.0852C156.634 92.0852 156.355 92.0241 156.082 91.902C155.813 91.7798 155.588 91.5938 155.409 91.3438C155.233 91.0938 155.145 90.7784 155.145 90.3977V83.8864ZM161.735 92.1364C161.104 92.1364 160.56 91.9972 160.103 91.7188C159.648 91.4375 159.298 91.0455 159.05 90.5426C158.806 90.0369 158.684 89.4489 158.684 88.7784C158.684 88.108 158.806 87.517 159.05 87.0057C159.298 86.4915 159.641 86.0909 160.082 85.804C160.525 85.5142 161.042 85.3693 161.633 85.3693C161.974 85.3693 162.31 85.4261 162.643 85.5398C162.975 85.6534 163.278 85.8381 163.55 86.0938C163.823 86.3466 164.04 86.6818 164.202 87.0994C164.364 87.517 164.445 88.0312 164.445 88.642V89.0682H159.4V88.1989H163.423C163.423 87.8295 163.349 87.5 163.201 87.2102C163.056 86.9205 162.849 86.6918 162.579 86.5241C162.312 86.3565 161.996 86.2727 161.633 86.2727C161.232 86.2727 160.886 86.3722 160.593 86.571C160.303 86.767 160.08 87.0227 159.924 87.3381C159.768 87.6534 159.69 87.9915 159.69 88.3523V88.9318C159.69 89.4261 159.775 89.8452 159.945 90.1889C160.119 90.5298 160.359 90.7898 160.665 90.9688C160.972 91.1449 161.329 91.233 161.735 91.233C161.999 91.233 162.238 91.196 162.451 91.1222C162.667 91.0455 162.853 90.9318 163.009 90.7812C163.165 90.6278 163.286 90.4375 163.371 90.2102L164.343 90.483C164.241 90.8125 164.069 91.1023 163.827 91.3523C163.586 91.5994 163.288 91.7926 162.933 91.9318C162.577 92.0682 162.178 92.1364 161.735 92.1364ZM172.197 85.4545V86.3068H168.805V85.4545H172.197ZM169.793 83.8864H170.799V90.125C170.799 90.4091 170.84 90.6222 170.923 90.7642C171.008 90.9034 171.116 90.9972 171.246 91.0455C171.38 91.0909 171.521 91.1136 171.668 91.1136C171.779 91.1136 171.87 91.108 171.941 91.0966C172.012 91.0824 172.069 91.071 172.112 91.0625L172.316 91.9659C172.248 91.9915 172.153 92.017 172.031 92.0426C171.908 92.071 171.754 92.0852 171.566 92.0852C171.282 92.0852 171.004 92.0241 170.731 91.902C170.461 91.7798 170.237 91.5938 170.058 91.3438C169.881 91.0938 169.793 90.7784 169.793 90.3977V83.8864ZM176.298 92.1364C175.707 92.1364 175.189 91.9957 174.743 91.7145C174.3 91.4332 173.953 91.0398 173.703 90.5341C173.456 90.0284 173.332 89.4375 173.332 88.7614C173.332 88.0795 173.456 87.4844 173.703 86.9759C173.953 86.4673 174.3 86.0724 174.743 85.7912C175.189 85.5099 175.707 85.3693 176.298 85.3693C176.889 85.3693 177.406 85.5099 177.849 85.7912C178.295 86.0724 178.642 86.4673 178.889 86.9759C179.139 87.4844 179.264 88.0795 179.264 88.7614C179.264 89.4375 179.139 90.0284 178.889 90.5341C178.642 91.0398 178.295 91.4332 177.849 91.7145C177.406 91.9957 176.889 92.1364 176.298 92.1364ZM176.298 91.233C176.747 91.233 177.116 91.1179 177.406 90.8878C177.696 90.6577 177.911 90.3551 178.05 89.9801C178.189 89.6051 178.259 89.1989 178.259 88.7614C178.259 88.3239 178.189 87.9162 178.05 87.5384C177.911 87.1605 177.696 86.8551 177.406 86.6222C177.116 86.3892 176.747 86.2727 176.298 86.2727C175.849 86.2727 175.48 86.3892 175.19 86.6222C174.901 86.8551 174.686 87.1605 174.547 87.5384C174.408 87.9162 174.338 88.3239 174.338 88.7614C174.338 89.1989 174.408 89.6051 174.547 89.9801C174.686 90.3551 174.901 90.6577 175.19 90.8878C175.48 91.1179 175.849 91.233 176.298 91.233ZM186.833 92.1364C186.243 92.1364 185.724 91.9957 185.278 91.7145C184.835 91.4332 184.488 91.0398 184.238 90.5341C183.991 90.0284 183.868 89.4375 183.868 88.7614C183.868 88.0795 183.991 87.4844 184.238 86.9759C184.488 86.4673 184.835 86.0724 185.278 85.7912C185.724 85.5099 186.243 85.3693 186.833 85.3693C187.424 85.3693 187.941 85.5099 188.385 85.7912C188.831 86.0724 189.177 86.4673 189.424 86.9759C189.674 87.4844 189.799 88.0795 189.799 88.7614C189.799 89.4375 189.674 90.0284 189.424 90.5341C189.177 91.0398 188.831 91.4332 188.385 91.7145C187.941 91.9957 187.424 92.1364 186.833 92.1364ZM186.833 91.233C187.282 91.233 187.652 91.1179 187.941 90.8878C188.231 90.6577 188.446 90.3551 188.585 89.9801C188.724 89.6051 188.794 89.1989 188.794 88.7614C188.794 88.3239 188.724 87.9162 188.585 87.5384C188.446 87.1605 188.231 86.8551 187.941 86.6222C187.652 86.3892 187.282 86.2727 186.833 86.2727C186.385 86.2727 186.015 86.3892 185.725 86.6222C185.436 86.8551 185.221 87.1605 185.082 87.5384C184.943 87.9162 184.873 88.3239 184.873 88.7614C184.873 89.1989 184.943 89.6051 185.082 89.9801C185.221 90.3551 185.436 90.6577 185.725 90.8878C186.015 91.1179 186.385 91.233 186.833 91.233ZM195.46 89.3239V85.4545H196.465V92H195.46V90.892H195.391C195.238 91.2244 194.999 91.5071 194.675 91.7401C194.352 91.9702 193.942 92.0852 193.448 92.0852C193.039 92.0852 192.675 91.9957 192.357 91.8168C192.039 91.6349 191.789 91.3622 191.607 90.9986C191.425 90.6321 191.335 90.1705 191.335 89.6136V85.4545H192.34V89.5455C192.34 90.0227 192.474 90.4034 192.741 90.6875C193.011 90.9716 193.354 91.1136 193.772 91.1136C194.022 91.1136 194.276 91.0497 194.535 90.9219C194.796 90.794 195.015 90.598 195.191 90.3338C195.37 90.0696 195.46 89.733 195.46 89.3239ZM198.307 92V85.4545H199.279V86.4432H199.347C199.466 86.1193 199.682 85.8565 199.995 85.6548C200.307 85.4531 200.659 85.3523 201.051 85.3523C201.125 85.3523 201.218 85.3537 201.328 85.3565C201.439 85.3594 201.523 85.3636 201.58 85.3693V86.392C201.546 86.3835 201.468 86.3707 201.346 86.3537C201.226 86.3338 201.1 86.3239 200.966 86.3239C200.648 86.3239 200.364 86.3906 200.114 86.5241C199.867 86.6548 199.671 86.8366 199.526 87.0696C199.384 87.2997 199.313 87.5625 199.313 87.858V92H198.307ZM208.806 92.1364C208.192 92.1364 207.664 91.9915 207.221 91.7017C206.778 91.4119 206.437 91.0128 206.198 90.5043C205.96 89.9957 205.84 89.4148 205.84 88.7614C205.84 88.0966 205.962 87.5099 206.207 87.0014C206.454 86.4901 206.798 86.0909 207.238 85.804C207.681 85.5142 208.198 85.3693 208.789 85.3693C209.249 85.3693 209.664 85.4545 210.033 85.625C210.403 85.7955 210.705 86.0341 210.941 86.3409C211.177 86.6477 211.323 87.0057 211.38 87.4148H210.374C210.298 87.1165 210.127 86.8523 209.863 86.6222C209.602 86.3892 209.249 86.2727 208.806 86.2727C208.414 86.2727 208.07 86.375 207.775 86.5795C207.482 86.7812 207.254 87.0668 207.089 87.4361C206.927 87.8026 206.846 88.233 206.846 88.7273C206.846 89.233 206.925 89.6733 207.085 90.0483C207.246 90.4233 207.474 90.7145 207.766 90.9219C208.062 91.1293 208.408 91.233 208.806 91.233C209.067 91.233 209.305 91.1875 209.518 91.0966C209.731 91.0057 209.911 90.875 210.059 90.7045C210.207 90.5341 210.312 90.3295 210.374 90.0909H211.38C211.323 90.4773 211.183 90.8253 210.958 91.1349C210.737 91.4418 210.442 91.6861 210.076 91.8679C209.712 92.0469 209.289 92.1364 208.806 92.1364ZM212.85 92V85.4545H213.822V86.4432H213.89C214.009 86.1193 214.225 85.8565 214.538 85.6548C214.85 85.4531 215.202 85.3523 215.594 85.3523C215.668 85.3523 215.761 85.3537 215.871 85.3565C215.982 85.3594 216.066 85.3636 216.123 85.3693V86.392C216.089 86.3835 216.011 86.3707 215.888 86.3537C215.769 86.3338 215.643 86.3239 215.509 86.3239C215.191 86.3239 214.907 86.3906 214.657 86.5241C214.41 86.6548 214.214 86.8366 214.069 87.0696C213.927 87.2997 213.856 87.5625 213.856 87.858V92H212.85ZM219.86 92.1364C219.229 92.1364 218.685 91.9972 218.228 91.7188C217.773 91.4375 217.423 91.0455 217.175 90.5426C216.931 90.0369 216.809 89.4489 216.809 88.7784C216.809 88.108 216.931 87.517 217.175 87.0057C217.423 86.4915 217.766 86.0909 218.207 85.804C218.65 85.5142 219.167 85.3693 219.758 85.3693C220.099 85.3693 220.435 85.4261 220.768 85.5398C221.1 85.6534 221.403 85.8381 221.675 86.0938C221.948 86.3466 222.165 86.6818 222.327 87.0994C222.489 87.517 222.57 88.0312 222.57 88.642V89.0682H217.525V88.1989H221.548C221.548 87.8295 221.474 87.5 221.326 87.2102C221.181 86.9205 220.974 86.6918 220.704 86.5241C220.437 86.3565 220.121 86.2727 219.758 86.2727C219.357 86.2727 219.011 86.3722 218.718 86.571C218.428 86.767 218.205 87.0227 218.049 87.3381C217.893 87.6534 217.815 87.9915 217.815 88.3523V88.9318C217.815 89.4261 217.9 89.8452 218.07 90.1889C218.244 90.5298 218.484 90.7898 218.79 90.9688C219.097 91.1449 219.454 91.233 219.86 91.233C220.124 91.233 220.363 91.196 220.576 91.1222C220.792 91.0455 220.978 90.9318 221.134 90.7812C221.29 90.6278 221.411 90.4375 221.496 90.2102L222.468 90.483C222.366 90.8125 222.194 91.1023 221.952 91.3523C221.711 91.5994 221.413 91.7926 221.058 91.9318C220.702 92.0682 220.303 92.1364 219.86 92.1364ZM226.572 92.1364C226.026 92.1364 225.545 91.9986 225.127 91.723C224.71 91.4446 224.383 91.0526 224.147 90.5469C223.911 90.0384 223.793 89.4375 223.793 88.7443C223.793 88.0568 223.911 87.4602 224.147 86.9545C224.383 86.4489 224.711 86.0582 225.131 85.7827C225.552 85.5071 226.038 85.3693 226.589 85.3693C227.015 85.3693 227.352 85.4403 227.599 85.5824C227.849 85.7216 228.039 85.8807 228.17 86.0597C228.303 86.2358 228.407 86.3807 228.481 86.4943H228.566V83.2727H229.572V92H228.6V90.9943H228.481C228.407 91.1136 228.302 91.2642 228.165 91.446C228.029 91.625 227.835 91.7855 227.582 91.9276C227.329 92.0668 226.992 92.1364 226.572 92.1364ZM226.708 91.233C227.112 91.233 227.452 91.1278 227.731 90.9176C228.009 90.7045 228.221 90.4105 228.366 90.0355C228.511 89.6577 228.583 89.2216 228.583 88.7273C228.583 88.2386 228.512 87.8111 228.37 87.4446C228.228 87.0753 228.018 86.7884 227.739 86.5838C227.461 86.3764 227.117 86.2727 226.708 86.2727C226.282 86.2727 225.927 86.3821 225.643 86.6009C225.362 86.8168 225.15 87.1108 225.008 87.483C224.869 87.8523 224.799 88.267 224.799 88.7273C224.799 89.1932 224.87 89.6165 225.012 89.9972C225.157 90.375 225.37 90.6761 225.651 90.9006C225.935 91.1222 226.288 91.233 226.708 91.233ZM231.553 92V85.4545H232.559V92H231.553ZM232.065 84.3636C231.869 84.3636 231.7 84.2969 231.558 84.1634C231.418 84.0298 231.349 83.8693 231.349 83.6818C231.349 83.4943 231.418 83.3338 231.558 83.2003C231.7 83.0668 231.869 83 232.065 83C232.261 83 232.428 83.0668 232.567 83.2003C232.71 83.3338 232.781 83.4943 232.781 83.6818C232.781 83.8693 232.71 84.0298 232.567 84.1634C232.428 84.2969 232.261 84.3636 232.065 84.3636ZM237.248 85.4545V86.3068H233.855V85.4545H237.248ZM234.844 83.8864H235.85V90.125C235.85 90.4091 235.891 90.6222 235.973 90.7642C236.059 90.9034 236.167 90.9972 236.297 91.0455C236.431 91.0909 236.571 91.1136 236.719 91.1136C236.83 91.1136 236.921 91.108 236.992 91.0966C237.063 91.0824 237.12 91.071 237.162 91.0625L237.367 91.9659C237.299 91.9915 237.203 92.017 237.081 92.0426C236.959 92.071 236.804 92.0852 236.617 92.0852C236.333 92.0852 236.054 92.0241 235.782 91.902C235.512 91.7798 235.287 91.5938 235.108 91.3438C234.932 91.0938 234.844 90.7784 234.844 90.3977V83.8864ZM243.279 86.9205L242.376 87.1761C242.319 87.0256 242.235 86.8793 242.125 86.7372C242.017 86.5923 241.869 86.473 241.681 86.3793C241.494 86.2855 241.254 86.2386 240.961 86.2386C240.561 86.2386 240.227 86.331 239.96 86.5156C239.696 86.6974 239.564 86.929 239.564 87.2102C239.564 87.4602 239.654 87.6577 239.836 87.8026C240.018 87.9474 240.302 88.0682 240.689 88.1648L241.66 88.4034C242.245 88.5455 242.681 88.7628 242.968 89.0554C243.255 89.3452 243.399 89.7187 243.399 90.1761C243.399 90.5511 243.291 90.8864 243.075 91.1818C242.862 91.4773 242.564 91.7102 242.18 91.8807C241.797 92.0511 241.35 92.1364 240.842 92.1364C240.174 92.1364 239.622 91.9915 239.184 91.7017C238.747 91.4119 238.47 90.9886 238.353 90.4318L239.308 90.1932C239.399 90.5455 239.571 90.8097 239.824 90.9858C240.079 91.1619 240.413 91.25 240.825 91.25C241.294 91.25 241.666 91.1506 241.941 90.9517C242.22 90.75 242.359 90.5085 242.359 90.2273C242.359 90 242.279 89.8097 242.12 89.6562C241.961 89.5 241.717 89.3835 241.387 89.3068L240.297 89.0511C239.697 88.9091 239.257 88.6889 238.975 88.3906C238.697 88.0895 238.558 87.7131 238.558 87.2614C238.558 86.892 238.662 86.5653 238.869 86.2812C239.079 85.9972 239.365 85.7741 239.725 85.6122C240.089 85.4503 240.501 85.3693 240.961 85.3693C241.609 85.3693 242.118 85.5114 242.487 85.7955C242.859 86.0795 243.123 86.4545 243.279 86.9205Z" fill="black"/>
</svg>
