<svg width="150" height="150" viewBox="0 0 150 150" fill="none" xmlns="http://www.w3.org/2000/svg">
<path d="M0 20C0 8.9543 8.95431 0 20 0H150V130C150 141.046 141.046 150 130 150H0V20Z" fill="#3E721D"/>
<path d="M19.6236 104V42.9091H44.8594C49.4332 42.9091 53.3807 43.7344 56.7017 45.3849C60.0426 47.0156 62.6179 49.3622 64.4276 52.4247C66.2372 55.4673 67.142 59.0767 67.142 63.2528C67.142 67.4886 66.2173 71.0881 64.3679 74.0511C62.5185 76.9943 59.8935 79.2415 56.4929 80.7926C53.0923 82.3239 49.0653 83.0895 44.4119 83.0895H28.4531V71.456H41.6676C43.8949 71.456 45.7543 71.1676 47.2457 70.5909C48.7571 69.9943 49.9006 69.0994 50.6761 67.9062C51.4517 66.6932 51.8395 65.142 51.8395 63.2528C51.8395 61.3636 51.4517 59.8026 50.6761 58.5696C49.9006 57.3168 48.7571 56.3821 47.2457 55.7656C45.7344 55.1293 43.875 54.8111 41.6676 54.8111H34.3892V104H19.6236ZM54.017 76.0795L69.2301 104H53.1222L38.2074 76.0795H54.017ZM74.1399 57.4545H88.0717L99.8899 86.2727H100.435L112.254 57.4545H126.185V104H115.231V75.4091H114.844L103.663 103.705H96.6626L85.4808 75.25H85.0945V104H74.1399V57.4545Z" fill="#DAE2B6"/>
</svg>
