<svg width="298" height="128" viewBox="0 0 298 128" fill="none" xmlns="http://www.w3.org/2000/svg">
<rect width="298" height="128" rx="20" fill="#DFE8CC"/>
<path d="M142.659 45.9091C142.557 45.0455 142.142 44.375 141.415 43.8977C140.688 43.4205 139.795 43.1818 138.739 43.1818C137.966 43.1818 137.29 43.3068 136.71 43.5568C136.136 43.8068 135.688 44.1506 135.364 44.5881C135.045 45.0256 134.886 45.5227 134.886 46.0795C134.886 46.5455 134.997 46.946 135.219 47.2812C135.446 47.6108 135.736 47.8864 136.088 48.108C136.44 48.3239 136.81 48.5028 137.196 48.6449C137.582 48.7812 137.938 48.892 138.261 48.9773L140.034 49.4545C140.489 49.5739 140.994 49.7386 141.551 49.9489C142.114 50.1591 142.651 50.446 143.162 50.8097C143.679 51.1676 144.105 51.6278 144.44 52.1903C144.776 52.7528 144.943 53.4432 144.943 54.2614C144.943 55.2045 144.696 56.0568 144.202 56.8182C143.713 57.5795 142.997 58.1847 142.054 58.6335C141.116 59.0824 139.977 59.3068 138.636 59.3068C137.386 59.3068 136.304 59.1051 135.389 58.7017C134.48 58.2983 133.764 57.7358 133.241 57.0142C132.724 56.2926 132.432 55.4545 132.364 54.5H134.545C134.602 55.1591 134.824 55.7045 135.21 56.1364C135.602 56.5625 136.097 56.8807 136.693 57.0909C137.295 57.2955 137.943 57.3977 138.636 57.3977C139.443 57.3977 140.168 57.267 140.81 57.0057C141.452 56.7386 141.96 56.3693 142.335 55.8977C142.71 55.4205 142.898 54.8636 142.898 54.2273C142.898 53.6477 142.736 53.1761 142.412 52.8125C142.088 52.4489 141.662 52.1534 141.134 51.9261C140.605 51.6989 140.034 51.5 139.42 51.3295L137.273 50.7159C135.909 50.3239 134.83 49.7642 134.034 49.0369C133.239 48.3097 132.841 47.358 132.841 46.1818C132.841 45.2045 133.105 44.3523 133.634 43.625C134.168 42.892 134.884 42.3239 135.781 41.9205C136.685 41.5114 137.693 41.3068 138.807 41.3068C139.932 41.3068 140.932 41.5085 141.807 41.9119C142.682 42.3097 143.375 42.8551 143.886 43.5483C144.403 44.2415 144.676 45.0284 144.705 45.9091H142.659ZM153.634 59.2727C152.373 59.2727 151.285 58.9943 150.37 58.4375C149.461 57.875 148.759 57.0909 148.265 56.0852C147.776 55.0739 147.532 53.8977 147.532 52.5568C147.532 51.2159 147.776 50.0341 148.265 49.0114C148.759 47.983 149.447 47.1818 150.327 46.608C151.214 46.0284 152.248 45.7386 153.43 45.7386C154.112 45.7386 154.785 45.8523 155.45 46.0795C156.114 46.3068 156.719 46.6761 157.265 47.1875C157.81 47.6932 158.245 48.3636 158.569 49.1989C158.893 50.0341 159.055 51.0625 159.055 52.2841V53.1364H148.964V51.3977H157.009C157.009 50.6591 156.862 50 156.566 49.4205C156.276 48.8409 155.862 48.3835 155.322 48.0483C154.788 47.7131 154.157 47.5455 153.43 47.5455C152.629 47.5455 151.935 47.7443 151.35 48.142C150.771 48.5341 150.325 49.0455 150.012 49.6761C149.7 50.3068 149.543 50.983 149.543 51.7045V52.8636C149.543 53.8523 149.714 54.6903 150.055 55.3778C150.401 56.0597 150.881 56.5795 151.495 56.9375C152.109 57.2898 152.822 57.4659 153.634 57.4659C154.163 57.4659 154.64 57.392 155.066 57.2443C155.498 57.0909 155.87 56.8636 156.183 56.5625C156.495 56.2557 156.737 55.875 156.907 55.4205L158.85 55.9659C158.646 56.625 158.302 57.2045 157.819 57.7045C157.336 58.1989 156.739 58.5852 156.029 58.8636C155.319 59.1364 154.521 59.2727 153.634 59.2727ZM167.808 45.9091V47.6136H161.023V45.9091H167.808ZM163.001 42.7727H165.012V55.25C165.012 55.8182 165.094 56.2443 165.259 56.5284C165.43 56.8068 165.646 56.9943 165.907 57.0909C166.174 57.1818 166.455 57.2273 166.751 57.2273C166.972 57.2273 167.154 57.2159 167.296 57.1932C167.438 57.1648 167.552 57.142 167.637 57.125L168.046 58.9318C167.91 58.983 167.719 59.0341 167.475 59.0852C167.231 59.142 166.921 59.1705 166.546 59.1705C165.978 59.1705 165.421 59.0483 164.876 58.804C164.336 58.5597 163.887 58.1875 163.529 57.6875C163.177 57.1875 163.001 56.5568 163.001 55.7955V42.7727ZM176.526 45.9091V47.6136H169.742V45.9091H176.526ZM171.719 42.7727H173.731V55.25C173.731 55.8182 173.813 56.2443 173.978 56.5284C174.148 56.8068 174.364 56.9943 174.626 57.0909C174.893 57.1818 175.174 57.2273 175.469 57.2273C175.691 57.2273 175.873 57.2159 176.015 57.1932C176.157 57.1648 176.271 57.142 176.356 57.125L176.765 58.9318C176.629 58.983 176.438 59.0341 176.194 59.0852C175.95 59.142 175.64 59.1705 175.265 59.1705C174.697 59.1705 174.14 59.0483 173.594 58.804C173.055 58.5597 172.606 58.1875 172.248 57.6875C171.896 57.1875 171.719 56.5568 171.719 55.7955V42.7727ZM179.552 59V45.9091H181.563V59H179.552ZM180.575 43.7273C180.183 43.7273 179.844 43.5938 179.56 43.3267C179.282 43.0597 179.143 42.7386 179.143 42.3636C179.143 41.9886 179.282 41.6676 179.56 41.4006C179.844 41.1335 180.183 41 180.575 41C180.967 41 181.302 41.1335 181.58 41.4006C181.864 41.6676 182.006 41.9886 182.006 42.3636C182.006 42.7386 181.864 43.0597 181.58 43.3267C181.302 43.5938 180.967 43.7273 180.575 43.7273ZM187.259 51.125V59H185.247V45.9091H187.19V47.9545H187.361C187.668 47.2898 188.134 46.7557 188.759 46.3523C189.384 45.9432 190.19 45.7386 191.179 45.7386C192.065 45.7386 192.841 45.9205 193.506 46.2841C194.17 46.642 194.688 47.1875 195.057 47.9205C195.426 48.6477 195.611 49.5682 195.611 50.6818V59H193.599V50.8182C193.599 49.7898 193.332 48.9886 192.798 48.4148C192.264 47.8352 191.531 47.5455 190.599 47.5455C189.957 47.5455 189.384 47.6847 188.878 47.9631C188.378 48.2415 187.983 48.6477 187.693 49.1818C187.403 49.7159 187.259 50.3636 187.259 51.125ZM204.57 64.1818C203.599 64.1818 202.763 64.0568 202.065 63.8068C201.366 63.5625 200.783 63.2386 200.317 62.8352C199.857 62.4375 199.491 62.0114 199.218 61.5568L200.82 60.4318C201.002 60.6705 201.232 60.9432 201.511 61.25C201.789 61.5625 202.17 61.8324 202.653 62.0597C203.141 62.2926 203.781 62.4091 204.57 62.4091C205.627 62.4091 206.499 62.1534 207.187 61.642C207.874 61.1307 208.218 60.3295 208.218 59.2386V56.5795H208.048C207.9 56.8182 207.69 57.1136 207.417 57.4659C207.15 57.8125 206.763 58.1222 206.258 58.3949C205.758 58.6619 205.082 58.7955 204.229 58.7955C203.173 58.7955 202.224 58.5455 201.383 58.0455C200.548 57.5455 199.886 56.8182 199.397 55.8636C198.914 54.9091 198.673 53.75 198.673 52.3864C198.673 51.0455 198.908 49.8778 199.38 48.8835C199.852 47.8835 200.508 47.1108 201.349 46.5653C202.19 46.0142 203.161 45.7386 204.263 45.7386C205.116 45.7386 205.792 45.8807 206.292 46.1648C206.798 46.4432 207.184 46.7614 207.451 47.1193C207.724 47.4716 207.934 47.7614 208.082 47.9886H208.286V45.9091H210.229V59.375C210.229 60.5 209.974 61.4148 209.462 62.1193C208.957 62.8295 208.275 63.3494 207.417 63.679C206.565 64.0142 205.616 64.1818 204.57 64.1818ZM204.502 56.9886C205.309 56.9886 205.991 56.804 206.548 56.4347C207.104 56.0653 207.528 55.5341 207.817 54.8409C208.107 54.1477 208.252 53.3182 208.252 52.3523C208.252 51.4091 208.11 50.5767 207.826 49.8551C207.542 49.1335 207.121 48.5682 206.565 48.1591C206.008 47.75 205.32 47.5455 204.502 47.5455C203.65 47.5455 202.94 47.7614 202.371 48.1932C201.809 48.625 201.386 49.2045 201.102 49.9318C200.823 50.6591 200.684 51.4659 200.684 52.3523C200.684 53.2614 200.826 54.0653 201.11 54.7642C201.4 55.4574 201.826 56.0028 202.388 56.4006C202.957 56.7926 203.661 56.9886 204.502 56.9886ZM223.184 48.8409L221.377 49.3523C221.263 49.0511 221.096 48.7585 220.874 48.4744C220.658 48.1847 220.363 47.946 219.988 47.7585C219.613 47.571 219.133 47.4773 218.548 47.4773C217.746 47.4773 217.079 47.6619 216.545 48.0312C216.016 48.3949 215.752 48.858 215.752 49.4205C215.752 49.9205 215.934 50.3153 216.298 50.6051C216.661 50.8949 217.229 51.1364 218.002 51.3295L219.945 51.8068C221.116 52.0909 221.988 52.5256 222.562 53.1108C223.136 53.6903 223.423 54.4375 223.423 55.3523C223.423 56.1023 223.207 56.7727 222.775 57.3636C222.349 57.9545 221.752 58.4205 220.985 58.7614C220.218 59.1023 219.326 59.2727 218.309 59.2727C216.974 59.2727 215.869 58.983 214.994 58.4034C214.119 57.8239 213.565 56.9773 213.332 55.8636L215.241 55.3864C215.423 56.0909 215.766 56.6193 216.272 56.9716C216.783 57.3239 217.451 57.5 218.275 57.5C219.212 57.5 219.957 57.3011 220.508 56.9034C221.065 56.5 221.343 56.017 221.343 55.4545C221.343 55 221.184 54.6193 220.866 54.3125C220.548 54 220.059 53.767 219.4 53.6136L217.218 53.1023C216.019 52.8182 215.138 52.3778 214.576 51.7812C214.019 51.179 213.741 50.4261 213.741 49.5227C213.741 48.7841 213.948 48.1307 214.363 47.5625C214.783 46.9943 215.354 46.5483 216.076 46.2244C216.803 45.9006 217.627 45.7386 218.548 45.7386C219.843 45.7386 220.86 46.0227 221.599 46.5909C222.343 47.1591 222.871 47.9091 223.184 48.8409Z" fill="black"/>
<path d="M136.83 74.4545C136.778 74.0227 136.571 73.6875 136.207 73.4489C135.844 73.2102 135.398 73.0909 134.869 73.0909C134.483 73.0909 134.145 73.1534 133.855 73.2784C133.568 73.4034 133.344 73.5753 133.182 73.794C133.023 74.0128 132.943 74.2614 132.943 74.5398C132.943 74.7727 132.999 74.973 133.109 75.1406C133.223 75.3054 133.368 75.4432 133.544 75.554C133.72 75.6619 133.905 75.7514 134.098 75.8224C134.291 75.8906 134.469 75.946 134.631 75.9886L135.517 76.2273C135.744 76.2869 135.997 76.3693 136.276 76.4744C136.557 76.5795 136.825 76.723 137.081 76.9048C137.339 77.0838 137.553 77.3139 137.72 77.5952C137.888 77.8764 137.972 78.2216 137.972 78.6307C137.972 79.1023 137.848 79.5284 137.601 79.9091C137.357 80.2898 136.999 80.5923 136.527 80.8168C136.058 81.0412 135.489 81.1534 134.818 81.1534C134.193 81.1534 133.652 81.0526 133.195 80.8509C132.74 80.6491 132.382 80.3679 132.121 80.0071C131.862 79.6463 131.716 79.2273 131.682 78.75H132.773C132.801 79.0795 132.912 79.3523 133.105 79.5682C133.301 79.7812 133.548 79.9403 133.847 80.0455C134.148 80.1477 134.472 80.1989 134.818 80.1989C135.222 80.1989 135.584 80.1335 135.905 80.0028C136.226 79.8693 136.48 79.6847 136.668 79.4489C136.855 79.2102 136.949 78.9318 136.949 78.6136C136.949 78.3239 136.868 78.0881 136.706 77.9062C136.544 77.7244 136.331 77.5767 136.067 77.4631C135.803 77.3494 135.517 77.25 135.21 77.1648L134.136 76.858C133.455 76.6619 132.915 76.3821 132.517 76.0185C132.119 75.6548 131.92 75.179 131.92 74.5909C131.92 74.1023 132.053 73.6761 132.317 73.3125C132.584 72.946 132.942 72.6619 133.391 72.4602C133.842 72.2557 134.347 72.1534 134.903 72.1534C135.466 72.1534 135.966 72.2543 136.403 72.456C136.841 72.6548 137.188 72.9276 137.443 73.2741C137.702 73.6207 137.838 74.0142 137.852 74.4545H136.83ZM142.317 81.1364C141.686 81.1364 141.142 80.9972 140.685 80.7188C140.23 80.4375 139.88 80.0455 139.632 79.5426C139.388 79.0369 139.266 78.4489 139.266 77.7784C139.266 77.108 139.388 76.517 139.632 76.0057C139.88 75.4915 140.223 75.0909 140.664 74.804C141.107 74.5142 141.624 74.3693 142.215 74.3693C142.556 74.3693 142.892 74.4261 143.225 74.5398C143.557 74.6534 143.86 74.8381 144.132 75.0938C144.405 75.3466 144.623 75.6818 144.784 76.0994C144.946 76.517 145.027 77.0312 145.027 77.642V78.0682H139.982V77.1989H144.005C144.005 76.8295 143.931 76.5 143.783 76.2102C143.638 75.9205 143.431 75.6918 143.161 75.5241C142.894 75.3565 142.578 75.2727 142.215 75.2727C141.814 75.2727 141.468 75.3722 141.175 75.571C140.885 75.767 140.662 76.0227 140.506 76.3381C140.35 76.6534 140.272 76.9915 140.272 77.3523V77.9318C140.272 78.4261 140.357 78.8452 140.527 79.1889C140.701 79.5298 140.941 79.7898 141.248 79.9688C141.554 80.1449 141.911 80.233 142.317 80.233C142.581 80.233 142.82 80.196 143.033 80.1222C143.249 80.0455 143.435 79.9318 143.591 79.7812C143.748 79.6278 143.868 79.4375 143.953 79.2102L144.925 79.483C144.823 79.8125 144.651 80.1023 144.409 80.3523C144.168 80.5994 143.87 80.7926 143.515 80.9318C143.159 81.0682 142.76 81.1364 142.317 81.1364ZM149.404 74.4545V75.3068H146.012V74.4545H149.404ZM147 72.8864H148.006V79.125C148.006 79.4091 148.047 79.6222 148.13 79.7642C148.215 79.9034 148.323 79.9972 148.453 80.0455C148.587 80.0909 148.728 80.1136 148.875 80.1136C148.986 80.1136 149.077 80.108 149.148 80.0966C149.219 80.0824 149.276 80.071 149.319 80.0625L149.523 80.9659C149.455 80.9915 149.36 81.017 149.238 81.0426C149.115 81.071 148.961 81.0852 148.773 81.0852C148.489 81.0852 148.211 81.0241 147.938 80.902C147.668 80.7798 147.444 80.5938 147.265 80.3438C147.088 80.0938 147 79.7784 147 79.3977V72.8864ZM154.939 83.4545C154.769 83.4545 154.617 83.4403 154.483 83.4119C154.35 83.3864 154.257 83.3608 154.206 83.3352L154.462 82.4489C154.706 82.5114 154.922 82.5341 155.11 82.517C155.297 82.5 155.463 82.4162 155.608 82.2656C155.756 82.1179 155.891 81.8778 156.013 81.5455L156.201 81.0341L153.78 74.4545H154.871L156.678 79.6705H156.746L158.553 74.4545H159.644L156.865 81.9545C156.74 82.2926 156.586 82.5724 156.401 82.794C156.216 83.0185 156.002 83.1847 155.757 83.2926C155.516 83.4006 155.243 83.4545 154.939 83.4545ZM163.396 81.1364C162.805 81.1364 162.287 80.9957 161.841 80.7145C161.397 80.4332 161.051 80.0398 160.801 79.5341C160.554 79.0284 160.43 78.4375 160.43 77.7614C160.43 77.0795 160.554 76.4844 160.801 75.9759C161.051 75.4673 161.397 75.0724 161.841 74.7912C162.287 74.5099 162.805 74.3693 163.396 74.3693C163.987 74.3693 164.504 74.5099 164.947 74.7912C165.393 75.0724 165.74 75.4673 165.987 75.9759C166.237 76.4844 166.362 77.0795 166.362 77.7614C166.362 78.4375 166.237 79.0284 165.987 79.5341C165.74 80.0398 165.393 80.4332 164.947 80.7145C164.504 80.9957 163.987 81.1364 163.396 81.1364ZM163.396 80.233C163.845 80.233 164.214 80.1179 164.504 79.8878C164.794 79.6577 165.008 79.3551 165.147 78.9801C165.287 78.6051 165.356 78.1989 165.356 77.7614C165.356 77.3239 165.287 76.9162 165.147 76.5384C165.008 76.1605 164.794 75.8551 164.504 75.6222C164.214 75.3892 163.845 75.2727 163.396 75.2727C162.947 75.2727 162.578 75.3892 162.288 75.6222C161.998 75.8551 161.784 76.1605 161.645 76.5384C161.505 76.9162 161.436 77.3239 161.436 77.7614C161.436 78.1989 161.505 78.6051 161.645 78.9801C161.784 79.3551 161.998 79.6577 162.288 79.8878C162.578 80.1179 162.947 80.233 163.396 80.233ZM172.022 78.3239V74.4545H173.028V81H172.022V79.892H171.954C171.8 80.2244 171.562 80.5071 171.238 80.7401C170.914 80.9702 170.505 81.0852 170.011 81.0852C169.602 81.0852 169.238 80.9957 168.92 80.8168C168.602 80.6349 168.352 80.3622 168.17 79.9986C167.988 79.6321 167.897 79.1705 167.897 78.6136V74.4545H168.903V78.5455C168.903 79.0227 169.036 79.4034 169.303 79.6875C169.573 79.9716 169.917 80.1136 170.335 80.1136C170.585 80.1136 170.839 80.0497 171.097 79.9219C171.359 79.794 171.577 79.598 171.754 79.3338C171.933 79.0696 172.022 78.733 172.022 78.3239ZM174.87 81V74.4545H175.841V75.4432H175.909C176.029 75.1193 176.245 74.8565 176.557 74.6548C176.87 74.4531 177.222 74.3523 177.614 74.3523C177.688 74.3523 177.78 74.3537 177.891 74.3565C178.002 74.3594 178.086 74.3636 178.142 74.3693V75.392C178.108 75.3835 178.03 75.3707 177.908 75.3537C177.789 75.3338 177.662 75.3239 177.529 75.3239C177.211 75.3239 176.926 75.3906 176.676 75.5241C176.429 75.6548 176.233 75.8366 176.088 76.0696C175.946 76.2997 175.875 76.5625 175.875 76.858V81H174.87ZM184.636 81.1534C184.221 81.1534 183.844 81.0753 183.506 80.919C183.168 80.7599 182.9 80.5312 182.701 80.233C182.502 79.9318 182.403 79.5682 182.403 79.142C182.403 78.767 182.477 78.4631 182.624 78.2301C182.772 77.9943 182.969 77.8097 183.217 77.6761C183.464 77.5426 183.737 77.4432 184.035 77.3778C184.336 77.3097 184.638 77.2557 184.942 77.2159C185.34 77.1648 185.663 77.1264 185.91 77.1009C186.16 77.0724 186.342 77.0256 186.455 76.9602C186.572 76.8949 186.63 76.7812 186.63 76.6193V76.5852C186.63 76.1648 186.515 75.8381 186.285 75.6051C186.058 75.3722 185.712 75.2557 185.249 75.2557C184.769 75.2557 184.393 75.3608 184.12 75.571C183.847 75.7812 183.656 76.0057 183.545 76.2443L182.59 75.9034C182.761 75.5057 182.988 75.196 183.272 74.9744C183.559 74.75 183.871 74.5937 184.21 74.5057C184.55 74.4148 184.886 74.3693 185.215 74.3693C185.425 74.3693 185.667 74.3949 185.94 74.446C186.215 74.4943 186.481 74.5952 186.737 74.7486C186.995 74.902 187.21 75.1335 187.38 75.4432C187.55 75.7528 187.636 76.1676 187.636 76.6875V81H186.63V80.1136H186.579C186.511 80.2557 186.397 80.4077 186.238 80.5696C186.079 80.7315 185.867 80.8693 185.603 80.983C185.339 81.0966 185.016 81.1534 184.636 81.1534ZM184.789 80.25C185.187 80.25 185.522 80.1719 185.795 80.0156C186.07 79.8594 186.278 79.6577 186.417 79.4105C186.559 79.1634 186.63 78.9034 186.63 78.6307V77.7102C186.587 77.7614 186.494 77.8082 186.349 77.8509C186.207 77.8906 186.042 77.9261 185.854 77.9574C185.67 77.9858 185.489 78.0114 185.313 78.0341C185.14 78.054 184.999 78.071 184.891 78.0852C184.63 78.1193 184.386 78.1747 184.158 78.2514C183.934 78.3253 183.752 78.4375 183.613 78.5881C183.477 78.7358 183.408 78.9375 183.408 79.1932C183.408 79.5426 183.538 79.8068 183.796 79.9858C184.058 80.1619 184.388 80.25 184.789 80.25ZM189.471 83.4545V74.4545H190.443V75.4943H190.562C190.636 75.3807 190.738 75.2358 190.869 75.0597C191.002 74.8807 191.193 74.7216 191.44 74.5824C191.69 74.4403 192.028 74.3693 192.454 74.3693C193.005 74.3693 193.491 74.5071 193.912 74.7827C194.332 75.0582 194.66 75.4489 194.896 75.9545C195.132 76.4602 195.25 77.0568 195.25 77.7443C195.25 78.4375 195.132 79.0384 194.896 79.5469C194.66 80.0526 194.333 80.4446 193.916 80.723C193.498 80.9986 193.017 81.1364 192.471 81.1364C192.051 81.1364 191.714 81.0668 191.461 80.9276C191.208 80.7855 191.014 80.625 190.877 80.446C190.741 80.2642 190.636 80.1136 190.562 79.9943H190.477V83.4545H189.471ZM190.46 77.7273C190.46 78.2216 190.532 78.6577 190.677 79.0355C190.822 79.4105 191.034 79.7045 191.312 79.9176C191.591 80.1278 191.931 80.233 192.335 80.233C192.755 80.233 193.106 80.1222 193.387 79.9006C193.672 79.6761 193.885 79.375 194.027 78.9972C194.172 78.6165 194.244 78.1932 194.244 77.7273C194.244 77.267 194.173 76.8523 194.031 76.483C193.892 76.1108 193.68 75.8168 193.396 75.6009C193.115 75.3821 192.761 75.2727 192.335 75.2727C191.926 75.2727 191.582 75.3764 191.304 75.5838C191.025 75.7884 190.815 76.0753 190.673 76.4446C190.531 76.8111 190.46 77.2386 190.46 77.7273ZM196.784 83.4545V74.4545H197.755V75.4943H197.875C197.949 75.3807 198.051 75.2358 198.181 75.0597C198.315 74.8807 198.505 74.7216 198.752 74.5824C199.002 74.4403 199.341 74.3693 199.767 74.3693C200.318 74.3693 200.804 74.5071 201.224 74.7827C201.645 75.0582 201.973 75.4489 202.208 75.9545C202.444 76.4602 202.562 77.0568 202.562 77.7443C202.562 78.4375 202.444 79.0384 202.208 79.5469C201.973 80.0526 201.646 80.4446 201.228 80.723C200.811 80.9986 200.329 81.1364 199.784 81.1364C199.363 81.1364 199.027 81.0668 198.774 80.9276C198.521 80.7855 198.326 80.625 198.19 80.446C198.054 80.2642 197.949 80.1136 197.875 79.9943H197.789V83.4545H196.784ZM197.772 77.7273C197.772 78.2216 197.845 78.6577 197.99 79.0355C198.135 79.4105 198.346 79.7045 198.625 79.9176C198.903 80.1278 199.244 80.233 199.647 80.233C200.068 80.233 200.419 80.1222 200.7 79.9006C200.984 79.6761 201.197 79.375 201.339 78.9972C201.484 78.6165 201.556 78.1932 201.556 77.7273C201.556 77.267 201.485 76.8523 201.343 76.483C201.204 76.1108 200.993 75.8168 200.708 75.6009C200.427 75.3821 200.074 75.2727 199.647 75.2727C199.238 75.2727 198.895 75.3764 198.616 75.5838C198.338 75.7884 198.127 76.0753 197.985 76.4446C197.843 76.8111 197.772 77.2386 197.772 77.7273ZM208.733 75.9205L207.829 76.1761C207.772 76.0256 207.689 75.8793 207.578 75.7372C207.47 75.5923 207.322 75.473 207.135 75.3793C206.947 75.2855 206.707 75.2386 206.414 75.2386C206.014 75.2386 205.68 75.331 205.413 75.5156C205.149 75.6974 205.017 75.929 205.017 76.2102C205.017 76.4602 205.108 76.6577 205.289 76.8026C205.471 76.9474 205.755 77.0682 206.142 77.1648L207.113 77.4034C207.699 77.5455 208.135 77.7628 208.422 78.0554C208.708 78.3452 208.852 78.7187 208.852 79.1761C208.852 79.5511 208.744 79.8864 208.528 80.1818C208.315 80.4773 208.017 80.7102 207.633 80.8807C207.25 81.0511 206.804 81.1364 206.295 81.1364C205.627 81.1364 205.075 80.9915 204.637 80.7017C204.2 80.4119 203.923 79.9886 203.806 79.4318L204.761 79.1932C204.852 79.5455 205.024 79.8097 205.277 79.9858C205.532 80.1619 205.866 80.25 206.278 80.25C206.747 80.25 207.119 80.1506 207.395 79.9517C207.673 79.75 207.812 79.5085 207.812 79.2273C207.812 79 207.733 78.8097 207.574 78.6562C207.414 78.5 207.17 78.3835 206.841 78.3068L205.75 78.0511C205.15 77.9091 204.71 77.6889 204.429 77.3906C204.15 77.0895 204.011 76.7131 204.011 76.2614C204.011 75.892 204.115 75.5653 204.322 75.2812C204.532 74.9972 204.818 74.7741 205.179 74.6122C205.542 74.4503 205.954 74.3693 206.414 74.3693C207.062 74.3693 207.571 74.5114 207.94 74.7955C208.312 75.0795 208.576 75.4545 208.733 75.9205ZM215.667 81.1534C215.252 81.1534 214.876 81.0753 214.538 80.919C214.2 80.7599 213.931 80.5312 213.732 80.233C213.533 79.9318 213.434 79.5682 213.434 79.142C213.434 78.767 213.508 78.4631 213.656 78.2301C213.803 77.9943 214.001 77.8097 214.248 77.6761C214.495 77.5426 214.768 77.4432 215.066 77.3778C215.367 77.3097 215.67 77.2557 215.974 77.2159C216.371 77.1648 216.694 77.1264 216.941 77.1009C217.191 77.0724 217.373 77.0256 217.487 76.9602C217.603 76.8949 217.661 76.7812 217.661 76.6193V76.5852C217.661 76.1648 217.546 75.8381 217.316 75.6051C217.089 75.3722 216.744 75.2557 216.281 75.2557C215.8 75.2557 215.424 75.3608 215.151 75.571C214.879 75.7812 214.687 76.0057 214.576 76.2443L213.621 75.9034C213.792 75.5057 214.019 75.196 214.303 74.9744C214.59 74.75 214.903 74.5937 215.241 74.5057C215.582 74.4148 215.917 74.3693 216.246 74.3693C216.457 74.3693 216.698 74.3949 216.971 74.446C217.246 74.4943 217.512 74.5952 217.768 74.7486C218.026 74.902 218.241 75.1335 218.411 75.4432C218.582 75.7528 218.667 76.1676 218.667 76.6875V81H217.661V80.1136H217.61C217.542 80.2557 217.428 80.4077 217.269 80.5696C217.11 80.7315 216.898 80.8693 216.634 80.983C216.37 81.0966 216.048 81.1534 215.667 81.1534ZM215.82 80.25C216.218 80.25 216.553 80.1719 216.826 80.0156C217.102 79.8594 217.309 79.6577 217.448 79.4105C217.59 79.1634 217.661 78.9034 217.661 78.6307V77.7102C217.619 77.7614 217.525 77.8082 217.38 77.8509C217.238 77.8906 217.073 77.9261 216.886 77.9574C216.701 77.9858 216.521 78.0114 216.344 78.0341C216.171 78.054 216.031 78.071 215.923 78.0852C215.661 78.1193 215.417 78.1747 215.19 78.2514C214.965 78.3253 214.783 78.4375 214.644 78.5881C214.508 78.7358 214.44 78.9375 214.44 79.1932C214.44 79.5426 214.569 79.8068 214.827 79.9858C215.089 80.1619 215.42 80.25 215.82 80.25ZM225.139 75.9205L224.235 76.1761C224.179 76.0256 224.095 75.8793 223.984 75.7372C223.876 75.5923 223.728 75.473 223.541 75.3793C223.353 75.2855 223.113 75.2386 222.821 75.2386C222.42 75.2386 222.086 75.331 221.819 75.5156C221.555 75.6974 221.423 75.929 221.423 76.2102C221.423 76.4602 221.514 76.6577 221.696 76.8026C221.877 76.9474 222.162 77.0682 222.548 77.1648L223.52 77.4034C224.105 77.5455 224.541 77.7628 224.828 78.0554C225.115 78.3452 225.258 78.7187 225.258 79.1761C225.258 79.5511 225.15 79.8864 224.934 80.1818C224.721 80.4773 224.423 80.7102 224.039 80.8807C223.656 81.0511 223.21 81.1364 222.701 81.1364C222.034 81.1364 221.481 80.9915 221.044 80.7017C220.606 80.4119 220.329 79.9886 220.213 79.4318L221.167 79.1932C221.258 79.5455 221.43 79.8097 221.683 79.9858C221.939 80.1619 222.272 80.25 222.684 80.25C223.153 80.25 223.525 80.1506 223.801 79.9517C224.079 79.75 224.218 79.5085 224.218 79.2273C224.218 79 224.139 78.8097 223.98 78.6562C223.821 78.5 223.576 78.3835 223.247 78.3068L222.156 78.0511C221.556 77.9091 221.116 77.6889 220.835 77.3906C220.556 77.0895 220.417 76.7131 220.417 76.2614C220.417 75.892 220.521 75.5653 220.728 75.2812C220.939 74.9972 221.224 74.7741 221.585 74.6122C221.949 74.4503 222.36 74.3693 222.821 74.3693C223.468 74.3693 223.977 74.5114 224.346 74.7955C224.718 75.0795 224.983 75.4545 225.139 75.9205ZM230.795 83.4545C230.624 83.4545 230.472 83.4403 230.339 83.4119C230.205 83.3864 230.113 83.3608 230.062 83.3352L230.317 82.4489C230.562 82.5114 230.778 82.5341 230.965 82.517C231.153 82.5 231.319 82.4162 231.464 82.2656C231.612 82.1179 231.746 81.8778 231.869 81.5455L232.056 81.0341L229.636 74.4545H230.727L232.533 79.6705H232.602L234.408 74.4545H235.499L232.721 81.9545C232.596 82.2926 232.441 82.5724 232.256 82.794C232.072 83.0185 231.857 83.1847 231.613 83.2926C231.371 83.4006 231.099 83.4545 230.795 83.4545ZM239.251 81.1364C238.661 81.1364 238.142 80.9957 237.696 80.7145C237.253 80.4332 236.906 80.0398 236.656 79.5341C236.409 79.0284 236.286 78.4375 236.286 77.7614C236.286 77.0795 236.409 76.4844 236.656 75.9759C236.906 75.4673 237.253 75.0724 237.696 74.7912C238.142 74.5099 238.661 74.3693 239.251 74.3693C239.842 74.3693 240.359 74.5099 240.803 74.7912C241.249 75.0724 241.595 75.4673 241.842 75.9759C242.092 76.4844 242.217 77.0795 242.217 77.7614C242.217 78.4375 242.092 79.0284 241.842 79.5341C241.595 80.0398 241.249 80.4332 240.803 80.7145C240.359 80.9957 239.842 81.1364 239.251 81.1364ZM239.251 80.233C239.7 80.233 240.07 80.1179 240.359 79.8878C240.649 79.6577 240.864 79.3551 241.003 78.9801C241.142 78.6051 241.212 78.1989 241.212 77.7614C241.212 77.3239 241.142 76.9162 241.003 76.5384C240.864 76.1605 240.649 75.8551 240.359 75.6222C240.07 75.3892 239.7 75.2727 239.251 75.2727C238.803 75.2727 238.433 75.3892 238.143 75.6222C237.854 75.8551 237.639 76.1605 237.5 76.5384C237.361 76.9162 237.291 77.3239 237.291 77.7614C237.291 78.1989 237.361 78.6051 237.5 78.9801C237.639 79.3551 237.854 79.6577 238.143 79.8878C238.433 80.1179 238.803 80.233 239.251 80.233ZM247.877 78.3239V74.4545H248.883V81H247.877V79.892H247.809C247.656 80.2244 247.417 80.5071 247.093 80.7401C246.77 80.9702 246.36 81.0852 245.866 81.0852C245.457 81.0852 245.093 80.9957 244.775 80.8168C244.457 80.6349 244.207 80.3622 244.025 79.9986C243.843 79.6321 243.752 79.1705 243.752 78.6136V74.4545H244.758V78.5455C244.758 79.0227 244.892 79.4034 245.159 79.6875C245.429 79.9716 245.772 80.1136 246.19 80.1136C246.44 80.1136 246.694 80.0497 246.953 79.9219C247.214 79.794 247.433 79.598 247.609 79.3338C247.788 79.0696 247.877 78.733 247.877 78.3239ZM250.725 81V74.4545H251.697V75.4432H251.765C251.884 75.1193 252.1 74.8565 252.413 74.6548C252.725 74.4531 253.077 74.3523 253.469 74.3523C253.543 74.3523 253.636 74.3537 253.746 74.3565C253.857 74.3594 253.941 74.3636 253.998 74.3693V75.392C253.964 75.3835 253.886 75.3707 253.763 75.3537C253.644 75.3338 253.518 75.3239 253.384 75.3239C253.066 75.3239 252.782 75.3906 252.532 75.5241C252.285 75.6548 252.089 75.8366 251.944 76.0696C251.802 76.2997 251.731 76.5625 251.731 76.858V81H250.725ZM131.92 98.4545V89.4545H132.892V90.4943H133.011C133.085 90.3807 133.188 90.2358 133.318 90.0597C133.452 89.8807 133.642 89.7216 133.889 89.5824C134.139 89.4403 134.477 89.3693 134.903 89.3693C135.455 89.3693 135.94 89.5071 136.361 89.7827C136.781 90.0582 137.109 90.4489 137.345 90.9545C137.581 91.4602 137.699 92.0568 137.699 92.7443C137.699 93.4375 137.581 94.0384 137.345 94.5469C137.109 95.0526 136.783 95.4446 136.365 95.723C135.947 95.9986 135.466 96.1364 134.92 96.1364C134.5 96.1364 134.163 96.0668 133.911 95.9276C133.658 95.7855 133.463 95.625 133.327 95.446C133.19 95.2642 133.085 95.1136 133.011 94.9943H132.926V98.4545H131.92ZM132.909 92.7273C132.909 93.2216 132.982 93.6577 133.126 94.0355C133.271 94.4105 133.483 94.7045 133.761 94.9176C134.04 95.1278 134.381 95.233 134.784 95.233C135.205 95.233 135.555 95.1222 135.837 94.9006C136.121 94.6761 136.334 94.375 136.476 93.9972C136.621 93.6165 136.693 93.1932 136.693 92.7273C136.693 92.267 136.622 91.8523 136.48 91.483C136.341 91.1108 136.129 90.8168 135.845 90.6009C135.564 90.3821 135.21 90.2727 134.784 90.2727C134.375 90.2727 134.031 90.3764 133.753 90.5838C133.474 90.7884 133.264 91.0753 133.122 91.4446C132.98 91.8111 132.909 92.2386 132.909 92.7273ZM139.233 96V89.4545H140.205V90.4432H140.273C140.392 90.1193 140.608 89.8565 140.92 89.6548C141.233 89.4531 141.585 89.3523 141.977 89.3523C142.051 89.3523 142.143 89.3537 142.254 89.3565C142.365 89.3594 142.449 89.3636 142.506 89.3693V90.392C142.472 90.3835 142.393 90.3707 142.271 90.3537C142.152 90.3338 142.026 90.3239 141.892 90.3239C141.574 90.3239 141.29 90.3906 141.04 90.5241C140.793 90.6548 140.597 90.8366 140.452 91.0696C140.31 91.2997 140.239 91.5625 140.239 91.858V96H139.233ZM146.243 96.1364C145.612 96.1364 145.068 95.9972 144.611 95.7188C144.156 95.4375 143.805 95.0455 143.558 94.5426C143.314 94.0369 143.192 93.4489 143.192 92.7784C143.192 92.108 143.314 91.517 143.558 91.0057C143.805 90.4915 144.149 90.0909 144.589 89.804C145.033 89.5142 145.55 89.3693 146.141 89.3693C146.482 89.3693 146.818 89.4261 147.151 89.5398C147.483 89.6534 147.786 89.8381 148.058 90.0938C148.331 90.3466 148.548 90.6818 148.71 91.0994C148.872 91.517 148.953 92.0312 148.953 92.642V93.0682H143.908V92.1989H147.93C147.93 91.8295 147.857 91.5 147.709 91.2102C147.564 90.9205 147.357 90.6918 147.087 90.5241C146.82 90.3565 146.504 90.2727 146.141 90.2727C145.74 90.2727 145.393 90.3722 145.101 90.571C144.811 90.767 144.588 91.0227 144.432 91.3381C144.276 91.6534 144.197 91.9915 144.197 92.3523V92.9318C144.197 93.4261 144.283 93.8452 144.453 94.1889C144.626 94.5298 144.866 94.7898 145.173 94.9688C145.48 95.1449 145.837 95.233 146.243 95.233C146.507 95.233 146.746 95.196 146.959 95.1222C147.175 95.0455 147.361 94.9318 147.517 94.7812C147.673 94.6278 147.794 94.4375 147.879 94.2102L148.851 94.483C148.749 94.8125 148.577 95.1023 148.335 95.3523C148.094 95.5994 147.795 95.7926 147.44 95.9318C147.085 96.0682 146.686 96.1364 146.243 96.1364ZM153.398 89.4545V90.3068H149.869V89.4545H153.398ZM150.926 96V88.5511C150.926 88.1761 151.014 87.8636 151.19 87.6136C151.366 87.3636 151.595 87.1761 151.876 87.0511C152.158 86.9261 152.455 86.8636 152.767 86.8636C153.014 86.8636 153.216 86.8835 153.372 86.9233C153.528 86.9631 153.645 87 153.722 87.0341L153.432 87.9034C153.381 87.8864 153.31 87.8651 153.219 87.8395C153.131 87.8139 153.014 87.8011 152.869 87.8011C152.537 87.8011 152.297 87.8849 152.149 88.0526C152.004 88.2202 151.932 88.4659 151.932 88.7898V96H150.926ZM157.282 96.1364C156.651 96.1364 156.107 95.9972 155.65 95.7188C155.195 95.4375 154.844 95.0455 154.597 94.5426C154.353 94.0369 154.231 93.4489 154.231 92.7784C154.231 92.108 154.353 91.517 154.597 91.0057C154.844 90.4915 155.188 90.0909 155.629 89.804C156.072 89.5142 156.589 89.3693 157.18 89.3693C157.521 89.3693 157.857 89.4261 158.19 89.5398C158.522 89.6534 158.825 89.8381 159.097 90.0938C159.37 90.3466 159.587 90.6818 159.749 91.0994C159.911 91.517 159.992 92.0312 159.992 92.642V93.0682H154.947V92.1989H158.969C158.969 91.8295 158.896 91.5 158.748 91.2102C158.603 90.9205 158.396 90.6918 158.126 90.5241C157.859 90.3565 157.543 90.2727 157.18 90.2727C156.779 90.2727 156.433 90.3722 156.14 90.571C155.85 90.767 155.627 91.0227 155.471 91.3381C155.315 91.6534 155.237 91.9915 155.237 92.3523V92.9318C155.237 93.4261 155.322 93.8452 155.492 94.1889C155.665 94.5298 155.906 94.7898 156.212 94.9688C156.519 95.1449 156.876 95.233 157.282 95.233C157.546 95.233 157.785 95.196 157.998 95.1222C158.214 95.0455 158.4 94.9318 158.556 94.7812C158.712 94.6278 158.833 94.4375 158.918 94.2102L159.89 94.483C159.788 94.8125 159.616 95.1023 159.374 95.3523C159.133 95.5994 158.835 95.7926 158.479 95.9318C158.124 96.0682 157.725 96.1364 157.282 96.1364ZM161.522 96V89.4545H162.494V90.4432H162.562C162.681 90.1193 162.897 89.8565 163.21 89.6548C163.522 89.4531 163.874 89.3523 164.266 89.3523C164.34 89.3523 164.433 89.3537 164.543 89.3565C164.654 89.3594 164.738 89.3636 164.795 89.3693V90.392C164.761 90.3835 164.683 90.3707 164.56 90.3537C164.441 90.3338 164.315 90.3239 164.181 90.3239C163.863 90.3239 163.579 90.3906 163.329 90.5241C163.082 90.6548 162.886 90.8366 162.741 91.0696C162.599 91.2997 162.528 91.5625 162.528 91.858V96H161.522ZM168.532 96.1364C167.901 96.1364 167.357 95.9972 166.9 95.7188C166.445 95.4375 166.094 95.0455 165.847 94.5426C165.603 94.0369 165.481 93.4489 165.481 92.7784C165.481 92.108 165.603 91.517 165.847 91.0057C166.094 90.4915 166.438 90.0909 166.879 89.804C167.322 89.5142 167.839 89.3693 168.43 89.3693C168.771 89.3693 169.107 89.4261 169.44 89.5398C169.772 89.6534 170.075 89.8381 170.347 90.0938C170.62 90.3466 170.837 90.6818 170.999 91.0994C171.161 91.517 171.242 92.0312 171.242 92.642V93.0682H166.197V92.1989H170.219C170.219 91.8295 170.146 91.5 169.998 91.2102C169.853 90.9205 169.646 90.6918 169.376 90.5241C169.109 90.3565 168.793 90.2727 168.43 90.2727C168.029 90.2727 167.683 90.3722 167.39 90.571C167.1 90.767 166.877 91.0227 166.721 91.3381C166.565 91.6534 166.487 91.9915 166.487 92.3523V92.9318C166.487 93.4261 166.572 93.8452 166.742 94.1889C166.915 94.5298 167.156 94.7898 167.462 94.9688C167.769 95.1449 168.126 95.233 168.532 95.233C168.796 95.233 169.035 95.196 169.248 95.1222C169.464 95.0455 169.65 94.9318 169.806 94.7812C169.962 94.6278 170.083 94.4375 170.168 94.2102L171.14 94.483C171.038 94.8125 170.866 95.1023 170.624 95.3523C170.383 95.5994 170.085 95.7926 169.729 95.9318C169.374 96.0682 168.975 96.1364 168.532 96.1364ZM173.778 92.0625V96H172.772V89.4545H173.744V90.4773H173.829C173.982 90.1449 174.215 89.8778 174.528 89.6761C174.84 89.4716 175.244 89.3693 175.738 89.3693C176.181 89.3693 176.569 89.4602 176.901 89.642C177.234 89.821 177.492 90.0938 177.677 90.4602C177.862 90.8239 177.954 91.2841 177.954 91.8409V96H176.948V91.9091C176.948 91.3949 176.815 90.9943 176.548 90.7074C176.281 90.4176 175.914 90.2727 175.448 90.2727C175.127 90.2727 174.84 90.3423 174.587 90.4815C174.337 90.6207 174.14 90.8239 173.995 91.0909C173.85 91.358 173.778 91.6818 173.778 92.0625ZM182.451 96.1364C181.837 96.1364 181.309 95.9915 180.865 95.7017C180.422 95.4119 180.081 95.0128 179.843 94.5043C179.604 93.9957 179.485 93.4148 179.485 92.7614C179.485 92.0966 179.607 91.5099 179.851 91.0014C180.098 90.4901 180.442 90.0909 180.882 89.804C181.326 89.5142 181.843 89.3693 182.434 89.3693C182.894 89.3693 183.309 89.4545 183.678 89.625C184.047 89.7955 184.35 90.0341 184.586 90.3409C184.821 90.6477 184.968 91.0057 185.025 91.4148H184.019C183.942 91.1165 183.772 90.8523 183.507 90.6222C183.246 90.3892 182.894 90.2727 182.451 90.2727C182.059 90.2727 181.715 90.375 181.419 90.5795C181.127 90.7812 180.898 91.0668 180.733 91.4361C180.571 91.8026 180.49 92.233 180.49 92.7273C180.49 93.233 180.57 93.6733 180.729 94.0483C180.891 94.4233 181.118 94.7145 181.411 94.9219C181.706 95.1293 182.053 95.233 182.451 95.233C182.712 95.233 182.949 95.1875 183.162 95.0966C183.375 95.0057 183.556 94.875 183.703 94.7045C183.851 94.5341 183.956 94.3295 184.019 94.0909H185.025C184.968 94.4773 184.827 94.8253 184.603 95.1349C184.381 95.4418 184.087 95.6861 183.721 95.8679C183.357 96.0469 182.934 96.1364 182.451 96.1364ZM189.239 96.1364C188.608 96.1364 188.064 95.9972 187.607 95.7188C187.152 95.4375 186.801 95.0455 186.554 94.5426C186.31 94.0369 186.188 93.4489 186.188 92.7784C186.188 92.108 186.31 91.517 186.554 91.0057C186.801 90.4915 187.145 90.0909 187.586 89.804C188.029 89.5142 188.546 89.3693 189.137 89.3693C189.478 89.3693 189.814 89.4261 190.147 89.5398C190.479 89.6534 190.782 89.8381 191.054 90.0938C191.327 90.3466 191.544 90.6818 191.706 91.0994C191.868 91.517 191.949 92.0312 191.949 92.642V93.0682H186.904V92.1989H190.926C190.926 91.8295 190.853 91.5 190.705 91.2102C190.56 90.9205 190.353 90.6918 190.083 90.5241C189.816 90.3565 189.5 90.2727 189.137 90.2727C188.736 90.2727 188.39 90.3722 188.097 90.571C187.807 90.767 187.584 91.0227 187.428 91.3381C187.272 91.6534 187.194 91.9915 187.194 92.3523V92.9318C187.194 93.4261 187.279 93.8452 187.449 94.1889C187.623 94.5298 187.863 94.7898 188.169 94.9688C188.476 95.1449 188.833 95.233 189.239 95.233C189.503 95.233 189.742 95.196 189.955 95.1222C190.171 95.0455 190.357 94.9318 190.513 94.7812C190.669 94.6278 190.79 94.4375 190.875 94.2102L191.847 94.483C191.745 94.8125 191.573 95.1023 191.331 95.3523C191.09 95.5994 190.792 95.7926 190.436 95.9318C190.081 96.0682 189.682 96.1364 189.239 96.1364ZM198.115 90.9205L197.212 91.1761C197.155 91.0256 197.071 90.8793 196.961 90.7372C196.853 90.5923 196.705 90.473 196.517 90.3793C196.33 90.2855 196.09 90.2386 195.797 90.2386C195.397 90.2386 195.063 90.331 194.796 90.5156C194.532 90.6974 194.4 90.929 194.4 91.2102C194.4 91.4602 194.49 91.6577 194.672 91.8026C194.854 91.9474 195.138 92.0682 195.525 92.1648L196.496 92.4034C197.081 92.5455 197.517 92.7628 197.804 93.0554C198.091 93.3452 198.235 93.7187 198.235 94.1761C198.235 94.5511 198.127 94.8864 197.911 95.1818C197.698 95.4773 197.4 95.7102 197.016 95.8807C196.632 96.0511 196.186 96.1364 195.678 96.1364C195.01 96.1364 194.458 95.9915 194.02 95.7017C193.583 95.4119 193.306 94.9886 193.189 94.4318L194.144 94.1932C194.235 94.5455 194.407 94.8097 194.659 94.9858C194.915 95.1619 195.249 95.25 195.661 95.25C196.13 95.25 196.502 95.1506 196.777 94.9517C197.056 94.75 197.195 94.5085 197.195 94.2273C197.195 94 197.115 93.8097 196.956 93.6562C196.797 93.5 196.553 93.3835 196.223 93.3068L195.132 93.0511C194.533 92.9091 194.093 92.6889 193.811 92.3906C193.533 92.0895 193.394 91.7131 193.394 91.2614C193.394 90.892 193.498 90.5653 193.705 90.2812C193.915 89.9972 194.201 89.7741 194.561 89.6122C194.925 89.4503 195.337 89.3693 195.797 89.3693C196.445 89.3693 196.953 89.5114 197.323 89.7955C197.695 90.0795 197.959 90.4545 198.115 90.9205Z" fill="black"/>
<path d="M62.0146 49.5634C59.3332 49.5634 56.8221 50.6524 54.9209 52.6427C53.0286 54.633 51.9794 57.2617 51.9794 60.0688C51.9794 62.8759 53.0286 65.5046 54.9209 67.4949C56.8221 69.4758 59.3332 70.5742 62.0146 70.5742C64.696 70.5742 67.2071 69.4758 69.1083 67.4949C71.0005 65.5046 72.0498 62.8759 72.0498 60.0688C72.0498 57.2617 71.0005 54.633 69.1083 52.6427C68.1797 51.6631 67.0744 50.8864 65.8566 50.3578C64.6389 49.8292 63.3329 49.5591 62.0146 49.5634ZM98.9897 71.6726L93.1246 66.4246C93.4026 64.6409 93.5461 62.8195 93.5461 61.0076C93.5461 59.1957 93.4026 57.365 93.1246 55.5906L98.9897 50.3426C99.4327 49.9455 99.7498 49.4167 99.8988 48.8264C100.048 48.2361 100.022 47.6123 99.8237 47.0379L99.743 46.7938C98.1289 42.0687 95.7103 37.6887 92.6045 33.8663L92.443 33.6691C92.0659 33.2049 91.5632 32.8712 91.0013 32.7119C90.4394 32.5527 89.8446 32.5755 89.2953 32.7772L82.0132 35.4904C79.3228 33.1809 76.3275 31.3596 73.0811 30.0922L71.6731 22.1216C71.5669 21.5211 71.2887 20.9687 70.8754 20.5378C70.4621 20.1068 69.9334 19.8177 69.3594 19.7088L69.1172 19.6619C64.4539 18.7794 59.5394 18.7794 54.8761 19.6619L54.6339 19.7088C54.0599 19.8177 53.5312 20.1068 53.1179 20.5378C52.7046 20.9687 52.4264 21.5211 52.3202 22.1216L50.9032 30.1297C47.6876 31.4073 44.6919 33.2242 42.0339 35.5092L34.698 32.7772C34.1489 32.5739 33.5536 32.5503 32.9914 32.7096C32.4291 32.8689 31.9265 33.2036 31.5503 33.6691L31.3888 33.8663C28.2885 37.6928 25.8706 42.0716 24.2503 46.7938L24.1696 47.0379C23.766 48.2115 24.0979 49.5258 25.0036 50.3426L30.9404 55.6469C30.6624 57.4119 30.5279 59.2145 30.5279 60.9982C30.5279 62.8008 30.6624 64.6033 30.9404 66.3495L25.0216 71.6539C24.5785 72.0509 24.2614 72.5798 24.1124 73.1701C23.9634 73.7604 23.9896 74.3842 24.1875 74.9585L24.2682 75.2026C25.8915 79.9249 28.2859 84.2904 31.4068 88.1302L31.5682 88.3273C31.9453 88.7916 32.448 89.1253 33.0099 89.2845C33.5718 89.4437 34.1667 89.421 34.716 89.2192L42.0518 86.4873C44.7243 88.7874 47.7016 90.6087 50.9212 91.8667L52.3381 99.8749C52.4443 100.475 52.7226 101.028 53.1358 101.459C53.5491 101.89 54.0779 102.179 54.6519 102.288L54.894 102.335C59.6032 103.222 64.4259 103.222 69.1352 102.335L69.3773 102.288C69.9513 102.179 70.4801 101.89 70.8933 101.459C71.3066 101.028 71.5848 100.475 71.6911 99.8749L73.099 91.9043C76.3455 90.6275 79.3408 88.8155 82.0312 86.506L89.3132 89.2192C89.8624 89.4226 90.4576 89.4461 91.0199 89.2868C91.5821 89.1275 92.0847 88.7929 92.461 88.3273L92.6224 88.1302C95.7433 84.2716 98.1377 79.9249 99.7609 75.2026L99.8416 74.9585C100.227 73.7944 99.8954 72.4894 98.9897 71.6726ZM62.0146 76.5733C53.3067 76.5733 46.2488 69.1848 46.2488 60.0688C46.2488 50.9528 53.3067 43.5643 62.0146 43.5643C70.7225 43.5643 77.7803 50.9528 77.7803 60.0688C77.7803 69.1848 70.7225 76.5733 62.0146 76.5733Z" fill="#15542C"/>
</svg>
